<?xml version="1.0" encoding="utf-8" standalone="no"?>
<!DOCTYPE svg PUBLIC "-//W3C//DTD SVG 1.1//EN"
  "http://www.w3.org/Graphics/SVG/1.1/DTD/svg11.dtd">
<svg xmlns:xlink="http://www.w3.org/1999/xlink" width="1080pt" height="216pt" viewBox="0 0 1080 216" xmlns="http://www.w3.org/2000/svg" version="1.1">
 <metadata>
  <rdf:RDF xmlns:dc="http://purl.org/dc/elements/1.1/" xmlns:cc="http://creativecommons.org/ns#" xmlns:rdf="http://www.w3.org/1999/02/22-rdf-syntax-ns#">
   <cc:Work>
    <dc:type rdf:resource="http://purl.org/dc/dcmitype/StillImage"/>
    <dc:date>2024-10-25T12:54:53.745084</dc:date>
    <dc:format>image/svg+xml</dc:format>
    <dc:creator>
     <cc:Agent>
      <dc:title>Matplotlib v3.7.2, https://matplotlib.org/</dc:title>
     </cc:Agent>
    </dc:creator>
   </cc:Work>
  </rdf:RDF>
 </metadata>
 <defs>
  <style type="text/css">*{stroke-linejoin: round; stroke-linecap: butt}</style>
 </defs>
 <g id="figure_1">
  <g id="patch_1">
   <path d="M 0 216 
L 1080 216 
L 1080 0 
L 0 0 
z
" style="fill: #ffffff"/>
  </g>
  <g id="axes_1">
   <g id="patch_2">
    <path d="M 135 192.24 
L 381.176471 192.24 
L 381.176471 25.92 
L 135 25.92 
z
" style="fill: #ffffff"/>
   </g>
   <g id="matplotlib.axis_1">
    <g id="xtick_1">
     <g id="line2d_1">
      <defs>
       <path id="mb5e2eadc57" d="M 0 0 
L 0 3.5 
" style="stroke: #000000; stroke-width: 0.8"/>
      </defs>
      <g>
       <use xlink:href="#mb5e2eadc57" x="146.18984" y="192.24" style="stroke: #000000; stroke-width: 0.8"/>
      </g>
     </g>
     <g id="text_1">
      <!-- 0 -->
      <g transform="translate(143.00859 206.838437) scale(0.1 -0.1)">
       <defs>
        <path id="DejaVuSans-30" d="M 2034 4250 
Q 1547 4250 1301 3770 
Q 1056 3291 1056 2328 
Q 1056 1369 1301 889 
Q 1547 409 2034 409 
Q 2525 409 2770 889 
Q 3016 1369 3016 2328 
Q 3016 3291 2770 3770 
Q 2525 4250 2034 4250 
z
M 2034 4750 
Q 2819 4750 3233 4129 
Q 3647 3509 3647 2328 
Q 3647 1150 3233 529 
Q 2819 -91 2034 -91 
Q 1250 -91 836 529 
Q 422 1150 422 2328 
Q 422 3509 836 4129 
Q 1250 4750 2034 4750 
z
" transform="scale(0.015625)"/>
       </defs>
       <use xlink:href="#DejaVuSans-30"/>
      </g>
     </g>
    </g>
    <g id="xtick_2">
     <g id="line2d_2">
      <g>
       <use xlink:href="#mb5e2eadc57" x="191.038896" y="192.24" style="stroke: #000000; stroke-width: 0.8"/>
      </g>
     </g>
     <g id="text_2">
      <!-- 100 -->
      <g transform="translate(181.495146 206.838437) scale(0.1 -0.1)">
       <defs>
        <path id="DejaVuSans-31" d="M 794 531 
L 1825 531 
L 1825 4091 
L 703 3866 
L 703 4441 
L 1819 4666 
L 2450 4666 
L 2450 531 
L 3481 531 
L 3481 0 
L 794 0 
L 794 531 
z
" transform="scale(0.015625)"/>
       </defs>
       <use xlink:href="#DejaVuSans-31"/>
       <use xlink:href="#DejaVuSans-30" x="63.623047"/>
       <use xlink:href="#DejaVuSans-30" x="127.246094"/>
      </g>
     </g>
    </g>
    <g id="xtick_3">
     <g id="line2d_3">
      <g>
       <use xlink:href="#mb5e2eadc57" x="235.887952" y="192.24" style="stroke: #000000; stroke-width: 0.8"/>
      </g>
     </g>
     <g id="text_3">
      <!-- 200 -->
      <g transform="translate(226.344202 206.838437) scale(0.1 -0.1)">
       <defs>
        <path id="DejaVuSans-32" d="M 1228 531 
L 3431 531 
L 3431 0 
L 469 0 
L 469 531 
Q 828 903 1448 1529 
Q 2069 2156 2228 2338 
Q 2531 2678 2651 2914 
Q 2772 3150 2772 3378 
Q 2772 3750 2511 3984 
Q 2250 4219 1831 4219 
Q 1534 4219 1204 4116 
Q 875 4013 500 3803 
L 500 4441 
Q 881 4594 1212 4672 
Q 1544 4750 1819 4750 
Q 2544 4750 2975 4387 
Q 3406 4025 3406 3419 
Q 3406 3131 3298 2873 
Q 3191 2616 2906 2266 
Q 2828 2175 2409 1742 
Q 1991 1309 1228 531 
z
" transform="scale(0.015625)"/>
       </defs>
       <use xlink:href="#DejaVuSans-32"/>
       <use xlink:href="#DejaVuSans-30" x="63.623047"/>
       <use xlink:href="#DejaVuSans-30" x="127.246094"/>
      </g>
     </g>
    </g>
    <g id="xtick_4">
     <g id="line2d_4">
      <g>
       <use xlink:href="#mb5e2eadc57" x="280.737009" y="192.24" style="stroke: #000000; stroke-width: 0.8"/>
      </g>
     </g>
     <g id="text_4">
      <!-- 300 -->
      <g transform="translate(271.193259 206.838437) scale(0.1 -0.1)">
       <defs>
        <path id="DejaVuSans-33" d="M 2597 2516 
Q 3050 2419 3304 2112 
Q 3559 1806 3559 1356 
Q 3559 666 3084 287 
Q 2609 -91 1734 -91 
Q 1441 -91 1130 -33 
Q 819 25 488 141 
L 488 750 
Q 750 597 1062 519 
Q 1375 441 1716 441 
Q 2309 441 2620 675 
Q 2931 909 2931 1356 
Q 2931 1769 2642 2001 
Q 2353 2234 1838 2234 
L 1294 2234 
L 1294 2753 
L 1863 2753 
Q 2328 2753 2575 2939 
Q 2822 3125 2822 3475 
Q 2822 3834 2567 4026 
Q 2313 4219 1838 4219 
Q 1578 4219 1281 4162 
Q 984 4106 628 3988 
L 628 4550 
Q 988 4650 1302 4700 
Q 1616 4750 1894 4750 
Q 2613 4750 3031 4423 
Q 3450 4097 3450 3541 
Q 3450 3153 3228 2886 
Q 3006 2619 2597 2516 
z
" transform="scale(0.015625)"/>
       </defs>
       <use xlink:href="#DejaVuSans-33"/>
       <use xlink:href="#DejaVuSans-30" x="63.623047"/>
       <use xlink:href="#DejaVuSans-30" x="127.246094"/>
      </g>
     </g>
    </g>
    <g id="xtick_5">
     <g id="line2d_5">
      <g>
       <use xlink:href="#mb5e2eadc57" x="325.586065" y="192.24" style="stroke: #000000; stroke-width: 0.8"/>
      </g>
     </g>
     <g id="text_5">
      <!-- 400 -->
      <g transform="translate(316.042315 206.838437) scale(0.1 -0.1)">
       <defs>
        <path id="DejaVuSans-34" d="M 2419 4116 
L 825 1625 
L 2419 1625 
L 2419 4116 
z
M 2253 4666 
L 3047 4666 
L 3047 1625 
L 3713 1625 
L 3713 1100 
L 3047 1100 
L 3047 0 
L 2419 0 
L 2419 1100 
L 313 1100 
L 313 1709 
L 2253 4666 
z
" transform="scale(0.015625)"/>
       </defs>
       <use xlink:href="#DejaVuSans-34"/>
       <use xlink:href="#DejaVuSans-30" x="63.623047"/>
       <use xlink:href="#DejaVuSans-30" x="127.246094"/>
      </g>
     </g>
    </g>
    <g id="xtick_6">
     <g id="line2d_6">
      <g>
       <use xlink:href="#mb5e2eadc57" x="370.435122" y="192.24" style="stroke: #000000; stroke-width: 0.8"/>
      </g>
     </g>
     <g id="text_6">
      <!-- 500 -->
      <g transform="translate(360.891372 206.838437) scale(0.1 -0.1)">
       <defs>
        <path id="DejaVuSans-35" d="M 691 4666 
L 3169 4666 
L 3169 4134 
L 1269 4134 
L 1269 2991 
Q 1406 3038 1543 3061 
Q 1681 3084 1819 3084 
Q 2600 3084 3056 2656 
Q 3513 2228 3513 1497 
Q 3513 744 3044 326 
Q 2575 -91 1722 -91 
Q 1428 -91 1123 -41 
Q 819 9 494 109 
L 494 744 
Q 775 591 1075 516 
Q 1375 441 1709 441 
Q 2250 441 2565 725 
Q 2881 1009 2881 1497 
Q 2881 1984 2565 2268 
Q 2250 2553 1709 2553 
Q 1456 2553 1204 2497 
Q 953 2441 691 2322 
L 691 4666 
z
" transform="scale(0.015625)"/>
       </defs>
       <use xlink:href="#DejaVuSans-35"/>
       <use xlink:href="#DejaVuSans-30" x="63.623047"/>
       <use xlink:href="#DejaVuSans-30" x="127.246094"/>
      </g>
     </g>
    </g>
   </g>
   <g id="matplotlib.axis_2">
    <g id="ytick_1">
     <g id="line2d_7">
      <defs>
       <path id="mab4a2bae59" d="M 0 0 
L -3.5 0 
" style="stroke: #000000; stroke-width: 0.8"/>
      </defs>
      <g>
       <use xlink:href="#mab4a2bae59" x="135" y="192.24" style="stroke: #000000; stroke-width: 0.8"/>
      </g>
     </g>
     <g id="text_7">
      <!-- −0.2 -->
      <g transform="translate(103.717187 196.039219) scale(0.1 -0.1)">
       <defs>
        <path id="DejaVuSans-2212" d="M 678 2272 
L 4684 2272 
L 4684 1741 
L 678 1741 
L 678 2272 
z
" transform="scale(0.015625)"/>
        <path id="DejaVuSans-2e" d="M 684 794 
L 1344 794 
L 1344 0 
L 684 0 
L 684 794 
z
" transform="scale(0.015625)"/>
       </defs>
       <use xlink:href="#DejaVuSans-2212"/>
       <use xlink:href="#DejaVuSans-30" x="83.789062"/>
       <use xlink:href="#DejaVuSans-2e" x="147.412109"/>
       <use xlink:href="#DejaVuSans-32" x="179.199219"/>
      </g>
     </g>
    </g>
    <g id="ytick_2">
     <g id="line2d_8">
      <g>
       <use xlink:href="#mab4a2bae59" x="135" y="168.48" style="stroke: #000000; stroke-width: 0.8"/>
      </g>
     </g>
     <g id="text_8">
      <!-- 0.0 -->
      <g transform="translate(112.096875 172.279219) scale(0.1 -0.1)">
       <use xlink:href="#DejaVuSans-30"/>
       <use xlink:href="#DejaVuSans-2e" x="63.623047"/>
       <use xlink:href="#DejaVuSans-30" x="95.410156"/>
      </g>
     </g>
    </g>
    <g id="ytick_3">
     <g id="line2d_9">
      <g>
       <use xlink:href="#mab4a2bae59" x="135" y="144.72" style="stroke: #000000; stroke-width: 0.8"/>
      </g>
     </g>
     <g id="text_9">
      <!-- 0.2 -->
      <g transform="translate(112.096875 148.519219) scale(0.1 -0.1)">
       <use xlink:href="#DejaVuSans-30"/>
       <use xlink:href="#DejaVuSans-2e" x="63.623047"/>
       <use xlink:href="#DejaVuSans-32" x="95.410156"/>
      </g>
     </g>
    </g>
    <g id="ytick_4">
     <g id="line2d_10">
      <g>
       <use xlink:href="#mab4a2bae59" x="135" y="120.96" style="stroke: #000000; stroke-width: 0.8"/>
      </g>
     </g>
     <g id="text_10">
      <!-- 0.4 -->
      <g transform="translate(112.096875 124.759219) scale(0.1 -0.1)">
       <use xlink:href="#DejaVuSans-30"/>
       <use xlink:href="#DejaVuSans-2e" x="63.623047"/>
       <use xlink:href="#DejaVuSans-34" x="95.410156"/>
      </g>
     </g>
    </g>
    <g id="ytick_5">
     <g id="line2d_11">
      <g>
       <use xlink:href="#mab4a2bae59" x="135" y="97.2" style="stroke: #000000; stroke-width: 0.8"/>
      </g>
     </g>
     <g id="text_11">
      <!-- 0.6 -->
      <g transform="translate(112.096875 100.999219) scale(0.1 -0.1)">
       <defs>
        <path id="DejaVuSans-36" d="M 2113 2584 
Q 1688 2584 1439 2293 
Q 1191 2003 1191 1497 
Q 1191 994 1439 701 
Q 1688 409 2113 409 
Q 2538 409 2786 701 
Q 3034 994 3034 1497 
Q 3034 2003 2786 2293 
Q 2538 2584 2113 2584 
z
M 3366 4563 
L 3366 3988 
Q 3128 4100 2886 4159 
Q 2644 4219 2406 4219 
Q 1781 4219 1451 3797 
Q 1122 3375 1075 2522 
Q 1259 2794 1537 2939 
Q 1816 3084 2150 3084 
Q 2853 3084 3261 2657 
Q 3669 2231 3669 1497 
Q 3669 778 3244 343 
Q 2819 -91 2113 -91 
Q 1303 -91 875 529 
Q 447 1150 447 2328 
Q 447 3434 972 4092 
Q 1497 4750 2381 4750 
Q 2619 4750 2861 4703 
Q 3103 4656 3366 4563 
z
" transform="scale(0.015625)"/>
       </defs>
       <use xlink:href="#DejaVuSans-30"/>
       <use xlink:href="#DejaVuSans-2e" x="63.623047"/>
       <use xlink:href="#DejaVuSans-36" x="95.410156"/>
      </g>
     </g>
    </g>
    <g id="ytick_6">
     <g id="line2d_12">
      <g>
       <use xlink:href="#mab4a2bae59" x="135" y="73.44" style="stroke: #000000; stroke-width: 0.8"/>
      </g>
     </g>
     <g id="text_12">
      <!-- 0.8 -->
      <g transform="translate(112.096875 77.239219) scale(0.1 -0.1)">
       <defs>
        <path id="DejaVuSans-38" d="M 2034 2216 
Q 1584 2216 1326 1975 
Q 1069 1734 1069 1313 
Q 1069 891 1326 650 
Q 1584 409 2034 409 
Q 2484 409 2743 651 
Q 3003 894 3003 1313 
Q 3003 1734 2745 1975 
Q 2488 2216 2034 2216 
z
M 1403 2484 
Q 997 2584 770 2862 
Q 544 3141 544 3541 
Q 544 4100 942 4425 
Q 1341 4750 2034 4750 
Q 2731 4750 3128 4425 
Q 3525 4100 3525 3541 
Q 3525 3141 3298 2862 
Q 3072 2584 2669 2484 
Q 3125 2378 3379 2068 
Q 3634 1759 3634 1313 
Q 3634 634 3220 271 
Q 2806 -91 2034 -91 
Q 1263 -91 848 271 
Q 434 634 434 1313 
Q 434 1759 690 2068 
Q 947 2378 1403 2484 
z
M 1172 3481 
Q 1172 3119 1398 2916 
Q 1625 2713 2034 2713 
Q 2441 2713 2670 2916 
Q 2900 3119 2900 3481 
Q 2900 3844 2670 4047 
Q 2441 4250 2034 4250 
Q 1625 4250 1398 4047 
Q 1172 3844 1172 3481 
z
" transform="scale(0.015625)"/>
       </defs>
       <use xlink:href="#DejaVuSans-30"/>
       <use xlink:href="#DejaVuSans-2e" x="63.623047"/>
       <use xlink:href="#DejaVuSans-38" x="95.410156"/>
      </g>
     </g>
    </g>
    <g id="ytick_7">
     <g id="line2d_13">
      <g>
       <use xlink:href="#mab4a2bae59" x="135" y="49.68" style="stroke: #000000; stroke-width: 0.8"/>
      </g>
     </g>
     <g id="text_13">
      <!-- 1.0 -->
      <g transform="translate(112.096875 53.479219) scale(0.1 -0.1)">
       <use xlink:href="#DejaVuSans-31"/>
       <use xlink:href="#DejaVuSans-2e" x="63.623047"/>
       <use xlink:href="#DejaVuSans-30" x="95.410156"/>
      </g>
     </g>
    </g>
    <g id="ytick_8">
     <g id="line2d_14">
      <g>
       <use xlink:href="#mab4a2bae59" x="135" y="25.92" style="stroke: #000000; stroke-width: 0.8"/>
      </g>
     </g>
     <g id="text_14">
      <!-- 1.2 -->
      <g transform="translate(112.096875 29.719219) scale(0.1 -0.1)">
       <use xlink:href="#DejaVuSans-31"/>
       <use xlink:href="#DejaVuSans-2e" x="63.623047"/>
       <use xlink:href="#DejaVuSans-32" x="95.410156"/>
      </g>
     </g>
    </g>
   </g>
   <g id="line2d_15">
    <path d="M 146.18984 49.68 
L 257.86399 49.68 
L 258.312481 168.48 
L 369.986631 168.48 
L 369.986631 168.48 
" clip-path="url(#p2e4d31cf7d)" style="fill: none; stroke: #2ca02c; stroke-linecap: square"/>
   </g>
   <g id="line2d_16">
    <path d="M 146.18984 107.6544 
L 150.226255 82.731508 
L 152.468707 70.315876 
L 154.26267 61.578875 
L 155.608141 55.860035 
L 156.953613 50.92635 
L 158.299085 46.817906 
L 159.644556 43.552486 
L 160.541538 41.842535 
L 161.438519 40.498927 
L 162.3355 39.510777 
L 163.232481 38.863293 
L 164.129462 38.538047 
L 165.026443 38.513302 
L 165.923424 38.764376 
L 166.820406 39.264053 
L 167.717387 39.983014 
L 169.062858 41.404567 
L 170.856821 43.770188 
L 177.584179 53.304271 
L 178.929651 54.669946 
L 180.275122 55.704509 
L 181.620594 56.375709 
L 182.517575 56.613409 
L 183.414556 56.682847 
L 184.311538 56.587444 
L 185.657009 56.150612 
L 187.002481 55.393375 
L 188.347953 54.363797 
L 190.141915 52.670281 
L 193.729839 48.799919 
L 195.972292 46.546455 
L 197.766254 45.086774 
L 199.111726 44.275392 
L 200.457198 43.750471 
L 201.80267 43.536614 
L 203.148141 43.643822 
L 204.493613 44.067083 
L 205.839085 44.786577 
L 207.184556 45.768497 
L 208.978519 47.404177 
L 211.669462 50.266175 
L 214.808896 53.554805 
L 216.602858 55.077733 
L 217.94833 55.931677 
L 219.293802 56.479881 
L 220.190783 56.655409 
L 221.087764 56.669025 
L 221.984745 56.515675 
L 222.881726 56.193611 
L 224.227198 55.398799 
L 225.572669 54.249413 
L 226.918141 52.783547 
L 228.712103 50.43427 
L 231.403047 46.432664 
L 234.09399 42.533906 
L 235.439462 40.890303 
L 236.784934 39.598025 
L 237.681915 38.984928 
L 238.578896 38.606008 
L 239.475877 38.48959 
L 240.372858 38.661675 
L 241.269839 39.145522 
L 242.16682 39.961255 
L 243.063801 41.125524 
L 243.960783 42.651197 
L 244.857764 44.547117 
L 246.203235 48.094134 
L 247.548707 52.480743 
L 248.894179 57.681687 
L 250.23965 63.649577 
L 252.033613 72.678486 
L 254.276065 85.374503 
L 257.415499 104.805826 
L 262.348896 135.428492 
L 264.591348 147.844124 
L 266.385311 156.581125 
L 267.730782 162.299965 
L 269.076254 167.23365 
L 270.421726 171.342094 
L 271.767197 174.607514 
L 272.664179 176.317465 
L 273.56116 177.661073 
L 274.458141 178.649223 
L 275.355122 179.296707 
L 276.252103 179.621953 
L 277.149084 179.646698 
L 278.046065 179.395624 
L 278.943047 178.895947 
L 279.840028 178.176986 
L 281.185499 176.755433 
L 282.979462 174.389812 
L 289.70682 164.855729 
L 291.052292 163.490054 
L 292.397763 162.455491 
L 293.743235 161.784291 
L 294.640216 161.546591 
L 295.537197 161.477153 
L 296.434179 161.572556 
L 297.77965 162.009388 
L 299.125122 162.766625 
L 300.470594 163.796203 
L 302.264556 165.489719 
L 305.85248 169.360081 
L 308.094933 171.613545 
L 309.888895 173.073226 
L 311.234367 173.884608 
L 312.579839 174.409529 
L 313.925311 174.623386 
L 315.270782 174.516178 
L 316.616254 174.092917 
L 317.961726 173.373423 
L 319.307197 172.391503 
L 321.10116 170.755823 
L 323.792103 167.893825 
L 326.931537 164.605195 
L 328.725499 163.082267 
L 330.070971 162.228323 
L 331.416443 161.680119 
L 332.313424 161.504591 
L 333.210405 161.490975 
L 334.107386 161.644325 
L 335.004367 161.966389 
L 336.349839 162.761201 
L 337.69531 163.910587 
L 339.040782 165.376453 
L 340.834744 167.72573 
L 343.525688 171.727336 
L 346.216631 175.626094 
L 347.562103 177.269697 
L 348.907575 178.561975 
L 349.804556 179.175072 
L 350.701537 179.553992 
L 351.598518 179.67041 
L 352.495499 179.498325 
L 353.39248 179.014478 
L 354.289461 178.198745 
L 355.186442 177.034476 
L 356.083424 175.508803 
L 356.980405 173.612883 
L 358.325876 170.065866 
L 359.671348 165.679257 
L 361.01682 160.478313 
L 362.362291 154.510423 
L 364.156254 145.481514 
L 366.398707 132.785497 
L 369.53814 113.354174 
L 369.986631 110.5056 
L 369.986631 110.5056 
" clip-path="url(#p2e4d31cf7d)" style="fill: none; stroke: #1f77b4; stroke-width: 1.5; stroke-linecap: square"/>
   </g>
   <g id="patch_3">
    <path d="M 135 192.24 
L 135 25.92 
" style="fill: none; stroke: #000000; stroke-width: 0.8; stroke-linejoin: miter; stroke-linecap: square"/>
   </g>
   <g id="patch_4">
    <path d="M 381.176471 192.24 
L 381.176471 25.92 
" style="fill: none; stroke: #000000; stroke-width: 0.8; stroke-linejoin: miter; stroke-linecap: square"/>
   </g>
   <g id="patch_5">
    <path d="M 135 192.24 
L 381.176471 192.24 
" style="fill: none; stroke: #000000; stroke-width: 0.8; stroke-linejoin: miter; stroke-linecap: square"/>
   </g>
   <g id="patch_6">
    <path d="M 135 25.92 
L 381.176471 25.92 
" style="fill: none; stroke: #000000; stroke-width: 0.8; stroke-linejoin: miter; stroke-linecap: square"/>
   </g>
   <g id="text_15">
    <!-- Reconstruction avec 5 coefficients -->
    <g transform="translate(154.936985 19.92) scale(0.12 -0.12)">
     <defs>
      <path id="DejaVuSans-52" d="M 2841 2188 
Q 3044 2119 3236 1894 
Q 3428 1669 3622 1275 
L 4263 0 
L 3584 0 
L 2988 1197 
Q 2756 1666 2539 1819 
Q 2322 1972 1947 1972 
L 1259 1972 
L 1259 0 
L 628 0 
L 628 4666 
L 2053 4666 
Q 2853 4666 3247 4331 
Q 3641 3997 3641 3322 
Q 3641 2881 3436 2590 
Q 3231 2300 2841 2188 
z
M 1259 4147 
L 1259 2491 
L 2053 2491 
Q 2509 2491 2742 2702 
Q 2975 2913 2975 3322 
Q 2975 3731 2742 3939 
Q 2509 4147 2053 4147 
L 1259 4147 
z
" transform="scale(0.015625)"/>
      <path id="DejaVuSans-65" d="M 3597 1894 
L 3597 1613 
L 953 1613 
Q 991 1019 1311 708 
Q 1631 397 2203 397 
Q 2534 397 2845 478 
Q 3156 559 3463 722 
L 3463 178 
Q 3153 47 2828 -22 
Q 2503 -91 2169 -91 
Q 1331 -91 842 396 
Q 353 884 353 1716 
Q 353 2575 817 3079 
Q 1281 3584 2069 3584 
Q 2775 3584 3186 3129 
Q 3597 2675 3597 1894 
z
M 3022 2063 
Q 3016 2534 2758 2815 
Q 2500 3097 2075 3097 
Q 1594 3097 1305 2825 
Q 1016 2553 972 2059 
L 3022 2063 
z
" transform="scale(0.015625)"/>
      <path id="DejaVuSans-63" d="M 3122 3366 
L 3122 2828 
Q 2878 2963 2633 3030 
Q 2388 3097 2138 3097 
Q 1578 3097 1268 2742 
Q 959 2388 959 1747 
Q 959 1106 1268 751 
Q 1578 397 2138 397 
Q 2388 397 2633 464 
Q 2878 531 3122 666 
L 3122 134 
Q 2881 22 2623 -34 
Q 2366 -91 2075 -91 
Q 1284 -91 818 406 
Q 353 903 353 1747 
Q 353 2603 823 3093 
Q 1294 3584 2113 3584 
Q 2378 3584 2631 3529 
Q 2884 3475 3122 3366 
z
" transform="scale(0.015625)"/>
      <path id="DejaVuSans-6f" d="M 1959 3097 
Q 1497 3097 1228 2736 
Q 959 2375 959 1747 
Q 959 1119 1226 758 
Q 1494 397 1959 397 
Q 2419 397 2687 759 
Q 2956 1122 2956 1747 
Q 2956 2369 2687 2733 
Q 2419 3097 1959 3097 
z
M 1959 3584 
Q 2709 3584 3137 3096 
Q 3566 2609 3566 1747 
Q 3566 888 3137 398 
Q 2709 -91 1959 -91 
Q 1206 -91 779 398 
Q 353 888 353 1747 
Q 353 2609 779 3096 
Q 1206 3584 1959 3584 
z
" transform="scale(0.015625)"/>
      <path id="DejaVuSans-6e" d="M 3513 2113 
L 3513 0 
L 2938 0 
L 2938 2094 
Q 2938 2591 2744 2837 
Q 2550 3084 2163 3084 
Q 1697 3084 1428 2787 
Q 1159 2491 1159 1978 
L 1159 0 
L 581 0 
L 581 3500 
L 1159 3500 
L 1159 2956 
Q 1366 3272 1645 3428 
Q 1925 3584 2291 3584 
Q 2894 3584 3203 3211 
Q 3513 2838 3513 2113 
z
" transform="scale(0.015625)"/>
      <path id="DejaVuSans-73" d="M 2834 3397 
L 2834 2853 
Q 2591 2978 2328 3040 
Q 2066 3103 1784 3103 
Q 1356 3103 1142 2972 
Q 928 2841 928 2578 
Q 928 2378 1081 2264 
Q 1234 2150 1697 2047 
L 1894 2003 
Q 2506 1872 2764 1633 
Q 3022 1394 3022 966 
Q 3022 478 2636 193 
Q 2250 -91 1575 -91 
Q 1294 -91 989 -36 
Q 684 19 347 128 
L 347 722 
Q 666 556 975 473 
Q 1284 391 1588 391 
Q 1994 391 2212 530 
Q 2431 669 2431 922 
Q 2431 1156 2273 1281 
Q 2116 1406 1581 1522 
L 1381 1569 
Q 847 1681 609 1914 
Q 372 2147 372 2553 
Q 372 3047 722 3315 
Q 1072 3584 1716 3584 
Q 2034 3584 2315 3537 
Q 2597 3491 2834 3397 
z
" transform="scale(0.015625)"/>
      <path id="DejaVuSans-74" d="M 1172 4494 
L 1172 3500 
L 2356 3500 
L 2356 3053 
L 1172 3053 
L 1172 1153 
Q 1172 725 1289 603 
Q 1406 481 1766 481 
L 2356 481 
L 2356 0 
L 1766 0 
Q 1100 0 847 248 
Q 594 497 594 1153 
L 594 3053 
L 172 3053 
L 172 3500 
L 594 3500 
L 594 4494 
L 1172 4494 
z
" transform="scale(0.015625)"/>
      <path id="DejaVuSans-72" d="M 2631 2963 
Q 2534 3019 2420 3045 
Q 2306 3072 2169 3072 
Q 1681 3072 1420 2755 
Q 1159 2438 1159 1844 
L 1159 0 
L 581 0 
L 581 3500 
L 1159 3500 
L 1159 2956 
Q 1341 3275 1631 3429 
Q 1922 3584 2338 3584 
Q 2397 3584 2469 3576 
Q 2541 3569 2628 3553 
L 2631 2963 
z
" transform="scale(0.015625)"/>
      <path id="DejaVuSans-75" d="M 544 1381 
L 544 3500 
L 1119 3500 
L 1119 1403 
Q 1119 906 1312 657 
Q 1506 409 1894 409 
Q 2359 409 2629 706 
Q 2900 1003 2900 1516 
L 2900 3500 
L 3475 3500 
L 3475 0 
L 2900 0 
L 2900 538 
Q 2691 219 2414 64 
Q 2138 -91 1772 -91 
Q 1169 -91 856 284 
Q 544 659 544 1381 
z
M 1991 3584 
L 1991 3584 
z
" transform="scale(0.015625)"/>
      <path id="DejaVuSans-69" d="M 603 3500 
L 1178 3500 
L 1178 0 
L 603 0 
L 603 3500 
z
M 603 4863 
L 1178 4863 
L 1178 4134 
L 603 4134 
L 603 4863 
z
" transform="scale(0.015625)"/>
      <path id="DejaVuSans-20" transform="scale(0.015625)"/>
      <path id="DejaVuSans-61" d="M 2194 1759 
Q 1497 1759 1228 1600 
Q 959 1441 959 1056 
Q 959 750 1161 570 
Q 1363 391 1709 391 
Q 2188 391 2477 730 
Q 2766 1069 2766 1631 
L 2766 1759 
L 2194 1759 
z
M 3341 1997 
L 3341 0 
L 2766 0 
L 2766 531 
Q 2569 213 2275 61 
Q 1981 -91 1556 -91 
Q 1019 -91 701 211 
Q 384 513 384 1019 
Q 384 1609 779 1909 
Q 1175 2209 1959 2209 
L 2766 2209 
L 2766 2266 
Q 2766 2663 2505 2880 
Q 2244 3097 1772 3097 
Q 1472 3097 1187 3025 
Q 903 2953 641 2809 
L 641 3341 
Q 956 3463 1253 3523 
Q 1550 3584 1831 3584 
Q 2591 3584 2966 3190 
Q 3341 2797 3341 1997 
z
" transform="scale(0.015625)"/>
      <path id="DejaVuSans-76" d="M 191 3500 
L 800 3500 
L 1894 563 
L 2988 3500 
L 3597 3500 
L 2284 0 
L 1503 0 
L 191 3500 
z
" transform="scale(0.015625)"/>
      <path id="DejaVuSans-66" d="M 2375 4863 
L 2375 4384 
L 1825 4384 
Q 1516 4384 1395 4259 
Q 1275 4134 1275 3809 
L 1275 3500 
L 2222 3500 
L 2222 3053 
L 1275 3053 
L 1275 0 
L 697 0 
L 697 3053 
L 147 3053 
L 147 3500 
L 697 3500 
L 697 3744 
Q 697 4328 969 4595 
Q 1241 4863 1831 4863 
L 2375 4863 
z
" transform="scale(0.015625)"/>
     </defs>
     <use xlink:href="#DejaVuSans-52"/>
     <use xlink:href="#DejaVuSans-65" x="64.982422"/>
     <use xlink:href="#DejaVuSans-63" x="126.505859"/>
     <use xlink:href="#DejaVuSans-6f" x="181.486328"/>
     <use xlink:href="#DejaVuSans-6e" x="242.667969"/>
     <use xlink:href="#DejaVuSans-73" x="306.046875"/>
     <use xlink:href="#DejaVuSans-74" x="358.146484"/>
     <use xlink:href="#DejaVuSans-72" x="397.355469"/>
     <use xlink:href="#DejaVuSans-75" x="438.46875"/>
     <use xlink:href="#DejaVuSans-63" x="501.847656"/>
     <use xlink:href="#DejaVuSans-74" x="556.828125"/>
     <use xlink:href="#DejaVuSans-69" x="596.037109"/>
     <use xlink:href="#DejaVuSans-6f" x="623.820312"/>
     <use xlink:href="#DejaVuSans-6e" x="685.001953"/>
     <use xlink:href="#DejaVuSans-20" x="748.380859"/>
     <use xlink:href="#DejaVuSans-61" x="780.167969"/>
     <use xlink:href="#DejaVuSans-76" x="841.447266"/>
     <use xlink:href="#DejaVuSans-65" x="900.626953"/>
     <use xlink:href="#DejaVuSans-63" x="962.150391"/>
     <use xlink:href="#DejaVuSans-20" x="1017.130859"/>
     <use xlink:href="#DejaVuSans-35" x="1048.917969"/>
     <use xlink:href="#DejaVuSans-20" x="1112.541016"/>
     <use xlink:href="#DejaVuSans-63" x="1144.328125"/>
     <use xlink:href="#DejaVuSans-6f" x="1199.308594"/>
     <use xlink:href="#DejaVuSans-65" x="1260.490234"/>
     <use xlink:href="#DejaVuSans-66" x="1322.013672"/>
     <use xlink:href="#DejaVuSans-66" x="1357.21875"/>
     <use xlink:href="#DejaVuSans-69" x="1392.423828"/>
     <use xlink:href="#DejaVuSans-63" x="1420.207031"/>
     <use xlink:href="#DejaVuSans-69" x="1475.1875"/>
     <use xlink:href="#DejaVuSans-65" x="1502.970703"/>
     <use xlink:href="#DejaVuSans-6e" x="1564.494141"/>
     <use xlink:href="#DejaVuSans-74" x="1627.873047"/>
     <use xlink:href="#DejaVuSans-73" x="1667.082031"/>
    </g>
   </g>
  </g>
  <g id="axes_2">
   <g id="patch_7">
    <path d="M 430.411765 192.24 
L 676.588235 192.24 
L 676.588235 25.92 
L 430.411765 25.92 
z
" style="fill: #ffffff"/>
   </g>
   <g id="matplotlib.axis_3">
    <g id="xtick_7">
     <g id="line2d_17">
      <g>
       <use xlink:href="#mb5e2eadc57" x="441.601604" y="192.24" style="stroke: #000000; stroke-width: 0.8"/>
      </g>
     </g>
     <g id="text_16">
      <!-- 0 -->
      <g transform="translate(438.420354 206.838437) scale(0.1 -0.1)">
       <use xlink:href="#DejaVuSans-30"/>
      </g>
     </g>
    </g>
    <g id="xtick_8">
     <g id="line2d_18">
      <g>
       <use xlink:href="#mb5e2eadc57" x="486.450661" y="192.24" style="stroke: #000000; stroke-width: 0.8"/>
      </g>
     </g>
     <g id="text_17">
      <!-- 100 -->
      <g transform="translate(476.906911 206.838437) scale(0.1 -0.1)">
       <use xlink:href="#DejaVuSans-31"/>
       <use xlink:href="#DejaVuSans-30" x="63.623047"/>
       <use xlink:href="#DejaVuSans-30" x="127.246094"/>
      </g>
     </g>
    </g>
    <g id="xtick_9">
     <g id="line2d_19">
      <g>
       <use xlink:href="#mb5e2eadc57" x="531.299717" y="192.24" style="stroke: #000000; stroke-width: 0.8"/>
      </g>
     </g>
     <g id="text_18">
      <!-- 200 -->
      <g transform="translate(521.755967 206.838437) scale(0.1 -0.1)">
       <use xlink:href="#DejaVuSans-32"/>
       <use xlink:href="#DejaVuSans-30" x="63.623047"/>
       <use xlink:href="#DejaVuSans-30" x="127.246094"/>
      </g>
     </g>
    </g>
    <g id="xtick_10">
     <g id="line2d_20">
      <g>
       <use xlink:href="#mb5e2eadc57" x="576.148773" y="192.24" style="stroke: #000000; stroke-width: 0.8"/>
      </g>
     </g>
     <g id="text_19">
      <!-- 300 -->
      <g transform="translate(566.605023 206.838437) scale(0.1 -0.1)">
       <use xlink:href="#DejaVuSans-33"/>
       <use xlink:href="#DejaVuSans-30" x="63.623047"/>
       <use xlink:href="#DejaVuSans-30" x="127.246094"/>
      </g>
     </g>
    </g>
    <g id="xtick_11">
     <g id="line2d_21">
      <g>
       <use xlink:href="#mb5e2eadc57" x="620.99783" y="192.24" style="stroke: #000000; stroke-width: 0.8"/>
      </g>
     </g>
     <g id="text_20">
      <!-- 400 -->
      <g transform="translate(611.45408 206.838437) scale(0.1 -0.1)">
       <use xlink:href="#DejaVuSans-34"/>
       <use xlink:href="#DejaVuSans-30" x="63.623047"/>
       <use xlink:href="#DejaVuSans-30" x="127.246094"/>
      </g>
     </g>
    </g>
    <g id="xtick_12">
     <g id="line2d_22">
      <g>
       <use xlink:href="#mb5e2eadc57" x="665.846886" y="192.24" style="stroke: #000000; stroke-width: 0.8"/>
      </g>
     </g>
     <g id="text_21">
      <!-- 500 -->
      <g transform="translate(656.303136 206.838437) scale(0.1 -0.1)">
       <use xlink:href="#DejaVuSans-35"/>
       <use xlink:href="#DejaVuSans-30" x="63.623047"/>
       <use xlink:href="#DejaVuSans-30" x="127.246094"/>
      </g>
     </g>
    </g>
   </g>
   <g id="matplotlib.axis_4">
    <g id="ytick_9">
     <g id="line2d_23">
      <g>
       <use xlink:href="#mab4a2bae59" x="430.411765" y="192.24" style="stroke: #000000; stroke-width: 0.8"/>
      </g>
     </g>
     <g id="text_22">
      <!-- −0.2 -->
      <g transform="translate(399.128952 196.039219) scale(0.1 -0.1)">
       <use xlink:href="#DejaVuSans-2212"/>
       <use xlink:href="#DejaVuSans-30" x="83.789062"/>
       <use xlink:href="#DejaVuSans-2e" x="147.412109"/>
       <use xlink:href="#DejaVuSans-32" x="179.199219"/>
      </g>
     </g>
    </g>
    <g id="ytick_10">
     <g id="line2d_24">
      <g>
       <use xlink:href="#mab4a2bae59" x="430.411765" y="168.48" style="stroke: #000000; stroke-width: 0.8"/>
      </g>
     </g>
     <g id="text_23">
      <!-- 0.0 -->
      <g transform="translate(407.50864 172.279219) scale(0.1 -0.1)">
       <use xlink:href="#DejaVuSans-30"/>
       <use xlink:href="#DejaVuSans-2e" x="63.623047"/>
       <use xlink:href="#DejaVuSans-30" x="95.410156"/>
      </g>
     </g>
    </g>
    <g id="ytick_11">
     <g id="line2d_25">
      <g>
       <use xlink:href="#mab4a2bae59" x="430.411765" y="144.72" style="stroke: #000000; stroke-width: 0.8"/>
      </g>
     </g>
     <g id="text_24">
      <!-- 0.2 -->
      <g transform="translate(407.50864 148.519219) scale(0.1 -0.1)">
       <use xlink:href="#DejaVuSans-30"/>
       <use xlink:href="#DejaVuSans-2e" x="63.623047"/>
       <use xlink:href="#DejaVuSans-32" x="95.410156"/>
      </g>
     </g>
    </g>
    <g id="ytick_12">
     <g id="line2d_26">
      <g>
       <use xlink:href="#mab4a2bae59" x="430.411765" y="120.96" style="stroke: #000000; stroke-width: 0.8"/>
      </g>
     </g>
     <g id="text_25">
      <!-- 0.4 -->
      <g transform="translate(407.50864 124.759219) scale(0.1 -0.1)">
       <use xlink:href="#DejaVuSans-30"/>
       <use xlink:href="#DejaVuSans-2e" x="63.623047"/>
       <use xlink:href="#DejaVuSans-34" x="95.410156"/>
      </g>
     </g>
    </g>
    <g id="ytick_13">
     <g id="line2d_27">
      <g>
       <use xlink:href="#mab4a2bae59" x="430.411765" y="97.2" style="stroke: #000000; stroke-width: 0.8"/>
      </g>
     </g>
     <g id="text_26">
      <!-- 0.6 -->
      <g transform="translate(407.50864 100.999219) scale(0.1 -0.1)">
       <use xlink:href="#DejaVuSans-30"/>
       <use xlink:href="#DejaVuSans-2e" x="63.623047"/>
       <use xlink:href="#DejaVuSans-36" x="95.410156"/>
      </g>
     </g>
    </g>
    <g id="ytick_14">
     <g id="line2d_28">
      <g>
       <use xlink:href="#mab4a2bae59" x="430.411765" y="73.44" style="stroke: #000000; stroke-width: 0.8"/>
      </g>
     </g>
     <g id="text_27">
      <!-- 0.8 -->
      <g transform="translate(407.50864 77.239219) scale(0.1 -0.1)">
       <use xlink:href="#DejaVuSans-30"/>
       <use xlink:href="#DejaVuSans-2e" x="63.623047"/>
       <use xlink:href="#DejaVuSans-38" x="95.410156"/>
      </g>
     </g>
    </g>
    <g id="ytick_15">
     <g id="line2d_29">
      <g>
       <use xlink:href="#mab4a2bae59" x="430.411765" y="49.68" style="stroke: #000000; stroke-width: 0.8"/>
      </g>
     </g>
     <g id="text_28">
      <!-- 1.0 -->
      <g transform="translate(407.50864 53.479219) scale(0.1 -0.1)">
       <use xlink:href="#DejaVuSans-31"/>
       <use xlink:href="#DejaVuSans-2e" x="63.623047"/>
       <use xlink:href="#DejaVuSans-30" x="95.410156"/>
      </g>
     </g>
    </g>
    <g id="ytick_16">
     <g id="line2d_30">
      <g>
       <use xlink:href="#mab4a2bae59" x="430.411765" y="25.92" style="stroke: #000000; stroke-width: 0.8"/>
      </g>
     </g>
     <g id="text_29">
      <!-- 1.2 -->
      <g transform="translate(407.50864 29.719219) scale(0.1 -0.1)">
       <use xlink:href="#DejaVuSans-31"/>
       <use xlink:href="#DejaVuSans-2e" x="63.623047"/>
       <use xlink:href="#DejaVuSans-32" x="95.410156"/>
      </g>
     </g>
    </g>
   </g>
   <g id="line2d_31">
    <path d="M 441.601604 49.68 
L 553.275755 49.68 
L 553.724245 168.48 
L 665.398396 168.48 
L 665.398396 168.48 
" clip-path="url(#p104fd3b9f2)" style="fill: none; stroke: #2ca02c; stroke-linecap: square"/>
   </g>
   <g id="line2d_32">
    <path d="M 441.601604 104.328 
L 442.947076 77.182913 
L 443.844057 61.999825 
L 444.741038 50.390426 
L 445.638019 42.861814 
L 446.08651 40.633231 
L 446.535 39.363673 
L 446.983491 38.967213 
L 447.431982 39.333417 
L 447.880472 40.332901 
L 448.777453 43.656926 
L 450.571416 51.58901 
L 451.468397 54.318977 
L 451.916887 55.122183 
L 452.365378 55.520031 
L 452.813868 55.520031 
L 453.262359 55.151813 
L 453.71085 54.463964 
L 454.607831 52.394365 
L 456.401793 47.658034 
L 457.298774 46.11841 
L 457.747265 45.718212 
L 458.195755 45.585383 
L 458.644246 45.714976 
L 459.092736 46.086617 
L 459.989717 47.409511 
L 462.23217 51.651452 
L 463.129151 52.639162 
L 463.577642 52.843772 
L 464.026132 52.843772 
L 464.474623 52.64612 
L 464.923114 52.269548 
L 465.820095 51.103851 
L 468.062548 47.763191 
L 468.511038 47.355161 
L 468.959529 47.10297 
L 469.408019 47.018208 
L 469.85651 47.101912 
L 470.305 47.34477 
L 471.201982 48.224398 
L 473.892925 51.557381 
L 474.341415 51.845708 
L 474.789906 51.993141 
L 475.238397 51.993141 
L 475.686887 51.848376 
L 476.583868 51.178749 
L 477.92934 49.607119 
L 479.274812 48.144313 
L 480.171793 47.6273 
L 480.620283 47.56024 
L 481.068774 47.626872 
L 481.965755 48.130065 
L 482.862736 49.002172 
L 484.656698 50.937591 
L 485.55368 51.526888 
L 486.00217 51.651666 
L 486.450661 51.651666 
L 487.347642 51.289067 
L 488.244623 50.535318 
L 490.487076 48.287972 
L 491.384057 47.825945 
L 491.832547 47.765583 
L 492.281038 47.825825 
L 493.178019 48.283978 
L 494.075 49.084636 
L 495.868963 50.883412 
L 496.765944 51.437941 
L 497.214434 51.556128 
L 497.662925 51.556128 
L 498.559906 51.20894 
L 499.456887 50.48168 
L 501.69934 48.283978 
L 502.596321 47.825825 
L 503.044812 47.765583 
L 503.493302 47.825945 
L 504.390283 48.287972 
L 505.287264 49.101623 
L 507.081227 50.95093 
L 507.978208 51.527903 
L 508.426698 51.651666 
L 508.875189 51.651666 
L 509.323679 51.526888 
L 510.220661 50.937591 
L 511.566132 49.509416 
L 512.911604 48.130065 
L 513.808585 47.626872 
L 514.257076 47.56024 
L 514.705566 47.6273 
L 515.602547 48.144313 
L 516.499528 49.062782 
L 518.293491 51.178749 
L 519.190472 51.848376 
L 519.638962 51.993141 
L 520.087453 51.993141 
L 520.535944 51.845708 
L 521.432925 51.143669 
L 522.329906 50.041715 
L 524.123868 47.727935 
L 525.020849 47.101912 
L 525.46934 47.018208 
L 525.91783 47.10297 
L 526.366321 47.355161 
L 527.263302 48.305365 
L 528.608774 50.394838 
L 529.505755 51.743058 
L 530.402736 52.64612 
L 530.851227 52.843772 
L 531.299717 52.843772 
L 531.748208 52.639162 
L 532.196698 52.235598 
L 533.093679 50.917138 
L 535.784623 46.086617 
L 536.233113 45.714976 
L 536.681604 45.585383 
L 537.130094 45.718212 
L 537.578585 46.11841 
L 538.027076 46.774421 
L 538.924057 48.725214 
L 541.166509 54.463964 
L 541.615 55.151813 
L 542.063491 55.520031 
L 542.511981 55.520031 
L 542.960472 55.122183 
L 543.408962 54.318977 
L 543.857453 53.127204 
L 544.754434 49.771719 
L 546.548396 41.823528 
L 546.996887 40.332901 
L 547.445377 39.333417 
L 547.893868 38.967213 
L 548.342359 39.363673 
L 548.790849 40.633231 
L 549.23934 42.861814 
L 549.68783 46.106185 
L 550.584811 55.703762 
L 551.481792 69.197441 
L 552.827264 94.923491 
L 555.069717 140.977087 
L 555.966698 156.160175 
L 556.863679 167.769574 
L 557.76066 175.298186 
L 558.209151 177.526769 
L 558.657641 178.796327 
L 559.106132 179.192787 
L 559.554623 178.826583 
L 560.003113 177.827099 
L 560.900094 174.503074 
L 562.694057 166.57099 
L 563.591038 163.841023 
L 564.039528 163.037817 
L 564.488019 162.639969 
L 564.936509 162.639969 
L 565.385 163.008187 
L 565.833491 163.696036 
L 566.730472 165.765635 
L 568.524434 170.501966 
L 569.421415 172.04159 
L 569.869906 172.441788 
L 570.318396 172.574617 
L 570.766887 172.445024 
L 571.215377 172.073383 
L 572.112358 170.750489 
L 574.354811 166.508548 
L 575.251792 165.520838 
L 575.700283 165.316228 
L 576.148773 165.316228 
L 576.597264 165.51388 
L 577.045755 165.890452 
L 577.942736 167.056149 
L 580.185189 170.396809 
L 580.633679 170.804839 
L 581.08217 171.05703 
L 581.53066 171.141792 
L 581.979151 171.058088 
L 582.427641 170.81523 
L 583.324623 169.935602 
L 586.015566 166.602619 
L 586.464056 166.314292 
L 586.912547 166.166859 
L 587.361038 166.166859 
L 587.809528 166.311624 
L 588.706509 166.981251 
L 590.051981 168.552881 
L 591.397453 170.015687 
L 592.294434 170.5327 
L 592.742924 170.59976 
L 593.191415 170.533128 
L 594.088396 170.029935 
L 594.985377 169.157828 
L 596.779339 167.222409 
L 597.676321 166.633112 
L 598.124811 166.508334 
L 598.573302 166.508334 
L 599.470283 166.870933 
L 600.367264 167.624682 
L 602.609717 169.872028 
L 603.506698 170.334055 
L 603.955188 170.394417 
L 604.403679 170.334175 
L 605.30066 169.876022 
L 606.197641 169.075364 
L 607.991604 167.276588 
L 608.888585 166.722059 
L 609.337075 166.603872 
L 609.785566 166.603872 
L 610.682547 166.95106 
L 611.579528 167.67832 
L 613.821981 169.876022 
L 614.718962 170.334175 
L 615.167453 170.394417 
L 615.615943 170.334055 
L 616.512924 169.872028 
L 617.409905 169.058377 
L 619.203868 167.20907 
L 620.100849 166.632097 
L 620.549339 166.508334 
L 620.99783 166.508334 
L 621.44632 166.633112 
L 622.343302 167.222409 
L 623.688773 168.650584 
L 625.034245 170.029935 
L 625.931226 170.533128 
L 626.379717 170.59976 
L 626.828207 170.5327 
L 627.725188 170.015687 
L 628.622169 169.097218 
L 630.416132 166.981251 
L 631.313113 166.311624 
L 631.761603 166.166859 
L 632.210094 166.166859 
L 632.658585 166.314292 
L 633.555566 167.016331 
L 634.452547 168.118285 
L 636.246509 170.432065 
L 637.14349 171.058088 
L 637.591981 171.141792 
L 638.040471 171.05703 
L 638.488962 170.804839 
L 639.385943 169.854635 
L 640.731415 167.765162 
L 641.628396 166.416942 
L 642.525377 165.51388 
L 642.973868 165.316228 
L 643.422358 165.316228 
L 643.870849 165.520838 
L 644.319339 165.924402 
L 645.21632 167.242862 
L 647.907264 172.073383 
L 648.355754 172.445024 
L 648.804245 172.574617 
L 649.252735 172.441788 
L 649.701226 172.04159 
L 650.149717 171.385579 
L 651.046698 169.434786 
L 653.28915 163.696036 
L 653.737641 163.008187 
L 654.186132 162.639969 
L 654.634622 162.639969 
L 655.083113 163.037817 
L 655.531603 163.841023 
L 655.980094 165.032796 
L 656.877075 168.388281 
L 658.671037 176.336472 
L 659.119528 177.827099 
L 659.568018 178.826583 
L 660.016509 179.192787 
L 660.465 178.796327 
L 660.91349 177.526769 
L 661.361981 175.298186 
L 661.810471 172.053815 
L 662.707452 162.456238 
L 663.604433 148.962559 
L 664.949905 123.236509 
L 665.398396 113.832 
L 665.398396 113.832 
" clip-path="url(#p104fd3b9f2)" style="fill: none; stroke: #1f77b4; stroke-width: 1.5; stroke-linecap: square"/>
   </g>
   <g id="patch_8">
    <path d="M 430.411765 192.24 
L 430.411765 25.92 
" style="fill: none; stroke: #000000; stroke-width: 0.8; stroke-linejoin: miter; stroke-linecap: square"/>
   </g>
   <g id="patch_9">
    <path d="M 676.588235 192.24 
L 676.588235 25.92 
" style="fill: none; stroke: #000000; stroke-width: 0.8; stroke-linejoin: miter; stroke-linecap: square"/>
   </g>
   <g id="patch_10">
    <path d="M 430.411765 192.24 
L 676.588235 192.24 
" style="fill: none; stroke: #000000; stroke-width: 0.8; stroke-linejoin: miter; stroke-linecap: square"/>
   </g>
   <g id="patch_11">
    <path d="M 430.411765 25.92 
L 676.588235 25.92 
" style="fill: none; stroke: #000000; stroke-width: 0.8; stroke-linejoin: miter; stroke-linecap: square"/>
   </g>
   <g id="text_30">
    <!-- Reconstruction avec 20 coefficients -->
    <g transform="translate(446.53125 19.92) scale(0.12 -0.12)">
     <use xlink:href="#DejaVuSans-52"/>
     <use xlink:href="#DejaVuSans-65" x="64.982422"/>
     <use xlink:href="#DejaVuSans-63" x="126.505859"/>
     <use xlink:href="#DejaVuSans-6f" x="181.486328"/>
     <use xlink:href="#DejaVuSans-6e" x="242.667969"/>
     <use xlink:href="#DejaVuSans-73" x="306.046875"/>
     <use xlink:href="#DejaVuSans-74" x="358.146484"/>
     <use xlink:href="#DejaVuSans-72" x="397.355469"/>
     <use xlink:href="#DejaVuSans-75" x="438.46875"/>
     <use xlink:href="#DejaVuSans-63" x="501.847656"/>
     <use xlink:href="#DejaVuSans-74" x="556.828125"/>
     <use xlink:href="#DejaVuSans-69" x="596.037109"/>
     <use xlink:href="#DejaVuSans-6f" x="623.820312"/>
     <use xlink:href="#DejaVuSans-6e" x="685.001953"/>
     <use xlink:href="#DejaVuSans-20" x="748.380859"/>
     <use xlink:href="#DejaVuSans-61" x="780.167969"/>
     <use xlink:href="#DejaVuSans-76" x="841.447266"/>
     <use xlink:href="#DejaVuSans-65" x="900.626953"/>
     <use xlink:href="#DejaVuSans-63" x="962.150391"/>
     <use xlink:href="#DejaVuSans-20" x="1017.130859"/>
     <use xlink:href="#DejaVuSans-32" x="1048.917969"/>
     <use xlink:href="#DejaVuSans-30" x="1112.541016"/>
     <use xlink:href="#DejaVuSans-20" x="1176.164062"/>
     <use xlink:href="#DejaVuSans-63" x="1207.951172"/>
     <use xlink:href="#DejaVuSans-6f" x="1262.931641"/>
     <use xlink:href="#DejaVuSans-65" x="1324.113281"/>
     <use xlink:href="#DejaVuSans-66" x="1385.636719"/>
     <use xlink:href="#DejaVuSans-66" x="1420.841797"/>
     <use xlink:href="#DejaVuSans-69" x="1456.046875"/>
     <use xlink:href="#DejaVuSans-63" x="1483.830078"/>
     <use xlink:href="#DejaVuSans-69" x="1538.810547"/>
     <use xlink:href="#DejaVuSans-65" x="1566.59375"/>
     <use xlink:href="#DejaVuSans-6e" x="1628.117188"/>
     <use xlink:href="#DejaVuSans-74" x="1691.496094"/>
     <use xlink:href="#DejaVuSans-73" x="1730.705078"/>
    </g>
   </g>
  </g>
  <g id="axes_3">
   <g id="patch_12">
    <path d="M 725.823529 192.24 
L 972 192.24 
L 972 25.92 
L 725.823529 25.92 
z
" style="fill: #ffffff"/>
   </g>
   <g id="matplotlib.axis_5">
    <g id="xtick_13">
     <g id="line2d_33">
      <g>
       <use xlink:href="#mb5e2eadc57" x="737.013369" y="192.24" style="stroke: #000000; stroke-width: 0.8"/>
      </g>
     </g>
     <g id="text_31">
      <!-- 0 -->
      <g transform="translate(733.832119 206.838437) scale(0.1 -0.1)">
       <use xlink:href="#DejaVuSans-30"/>
      </g>
     </g>
    </g>
    <g id="xtick_14">
     <g id="line2d_34">
      <g>
       <use xlink:href="#mb5e2eadc57" x="781.862425" y="192.24" style="stroke: #000000; stroke-width: 0.8"/>
      </g>
     </g>
     <g id="text_32">
      <!-- 100 -->
      <g transform="translate(772.318675 206.838437) scale(0.1 -0.1)">
       <use xlink:href="#DejaVuSans-31"/>
       <use xlink:href="#DejaVuSans-30" x="63.623047"/>
       <use xlink:href="#DejaVuSans-30" x="127.246094"/>
      </g>
     </g>
    </g>
    <g id="xtick_15">
     <g id="line2d_35">
      <g>
       <use xlink:href="#mb5e2eadc57" x="826.711482" y="192.24" style="stroke: #000000; stroke-width: 0.8"/>
      </g>
     </g>
     <g id="text_33">
      <!-- 200 -->
      <g transform="translate(817.167732 206.838437) scale(0.1 -0.1)">
       <use xlink:href="#DejaVuSans-32"/>
       <use xlink:href="#DejaVuSans-30" x="63.623047"/>
       <use xlink:href="#DejaVuSans-30" x="127.246094"/>
      </g>
     </g>
    </g>
    <g id="xtick_16">
     <g id="line2d_36">
      <g>
       <use xlink:href="#mb5e2eadc57" x="871.560538" y="192.24" style="stroke: #000000; stroke-width: 0.8"/>
      </g>
     </g>
     <g id="text_34">
      <!-- 300 -->
      <g transform="translate(862.016788 206.838437) scale(0.1 -0.1)">
       <use xlink:href="#DejaVuSans-33"/>
       <use xlink:href="#DejaVuSans-30" x="63.623047"/>
       <use xlink:href="#DejaVuSans-30" x="127.246094"/>
      </g>
     </g>
    </g>
    <g id="xtick_17">
     <g id="line2d_37">
      <g>
       <use xlink:href="#mb5e2eadc57" x="916.409595" y="192.24" style="stroke: #000000; stroke-width: 0.8"/>
      </g>
     </g>
     <g id="text_35">
      <!-- 400 -->
      <g transform="translate(906.865845 206.838437) scale(0.1 -0.1)">
       <use xlink:href="#DejaVuSans-34"/>
       <use xlink:href="#DejaVuSans-30" x="63.623047"/>
       <use xlink:href="#DejaVuSans-30" x="127.246094"/>
      </g>
     </g>
    </g>
    <g id="xtick_18">
     <g id="line2d_38">
      <g>
       <use xlink:href="#mb5e2eadc57" x="961.258651" y="192.24" style="stroke: #000000; stroke-width: 0.8"/>
      </g>
     </g>
     <g id="text_36">
      <!-- 500 -->
      <g transform="translate(951.714901 206.838437) scale(0.1 -0.1)">
       <use xlink:href="#DejaVuSans-35"/>
       <use xlink:href="#DejaVuSans-30" x="63.623047"/>
       <use xlink:href="#DejaVuSans-30" x="127.246094"/>
      </g>
     </g>
    </g>
   </g>
   <g id="matplotlib.axis_6">
    <g id="ytick_17">
     <g id="line2d_39">
      <g>
       <use xlink:href="#mab4a2bae59" x="725.823529" y="192.24" style="stroke: #000000; stroke-width: 0.8"/>
      </g>
     </g>
     <g id="text_37">
      <!-- −0.2 -->
      <g transform="translate(694.540717 196.039219) scale(0.1 -0.1)">
       <use xlink:href="#DejaVuSans-2212"/>
       <use xlink:href="#DejaVuSans-30" x="83.789062"/>
       <use xlink:href="#DejaVuSans-2e" x="147.412109"/>
       <use xlink:href="#DejaVuSans-32" x="179.199219"/>
      </g>
     </g>
    </g>
    <g id="ytick_18">
     <g id="line2d_40">
      <g>
       <use xlink:href="#mab4a2bae59" x="725.823529" y="168.48" style="stroke: #000000; stroke-width: 0.8"/>
      </g>
     </g>
     <g id="text_38">
      <!-- 0.0 -->
      <g transform="translate(702.920404 172.279219) scale(0.1 -0.1)">
       <use xlink:href="#DejaVuSans-30"/>
       <use xlink:href="#DejaVuSans-2e" x="63.623047"/>
       <use xlink:href="#DejaVuSans-30" x="95.410156"/>
      </g>
     </g>
    </g>
    <g id="ytick_19">
     <g id="line2d_41">
      <g>
       <use xlink:href="#mab4a2bae59" x="725.823529" y="144.72" style="stroke: #000000; stroke-width: 0.8"/>
      </g>
     </g>
     <g id="text_39">
      <!-- 0.2 -->
      <g transform="translate(702.920404 148.519219) scale(0.1 -0.1)">
       <use xlink:href="#DejaVuSans-30"/>
       <use xlink:href="#DejaVuSans-2e" x="63.623047"/>
       <use xlink:href="#DejaVuSans-32" x="95.410156"/>
      </g>
     </g>
    </g>
    <g id="ytick_20">
     <g id="line2d_42">
      <g>
       <use xlink:href="#mab4a2bae59" x="725.823529" y="120.96" style="stroke: #000000; stroke-width: 0.8"/>
      </g>
     </g>
     <g id="text_40">
      <!-- 0.4 -->
      <g transform="translate(702.920404 124.759219) scale(0.1 -0.1)">
       <use xlink:href="#DejaVuSans-30"/>
       <use xlink:href="#DejaVuSans-2e" x="63.623047"/>
       <use xlink:href="#DejaVuSans-34" x="95.410156"/>
      </g>
     </g>
    </g>
    <g id="ytick_21">
     <g id="line2d_43">
      <g>
       <use xlink:href="#mab4a2bae59" x="725.823529" y="97.2" style="stroke: #000000; stroke-width: 0.8"/>
      </g>
     </g>
     <g id="text_41">
      <!-- 0.6 -->
      <g transform="translate(702.920404 100.999219) scale(0.1 -0.1)">
       <use xlink:href="#DejaVuSans-30"/>
       <use xlink:href="#DejaVuSans-2e" x="63.623047"/>
       <use xlink:href="#DejaVuSans-36" x="95.410156"/>
      </g>
     </g>
    </g>
    <g id="ytick_22">
     <g id="line2d_44">
      <g>
       <use xlink:href="#mab4a2bae59" x="725.823529" y="73.44" style="stroke: #000000; stroke-width: 0.8"/>
      </g>
     </g>
     <g id="text_42">
      <!-- 0.8 -->
      <g transform="translate(702.920404 77.239219) scale(0.1 -0.1)">
       <use xlink:href="#DejaVuSans-30"/>
       <use xlink:href="#DejaVuSans-2e" x="63.623047"/>
       <use xlink:href="#DejaVuSans-38" x="95.410156"/>
      </g>
     </g>
    </g>
    <g id="ytick_23">
     <g id="line2d_45">
      <g>
       <use xlink:href="#mab4a2bae59" x="725.823529" y="49.68" style="stroke: #000000; stroke-width: 0.8"/>
      </g>
     </g>
     <g id="text_43">
      <!-- 1.0 -->
      <g transform="translate(702.920404 53.479219) scale(0.1 -0.1)">
       <use xlink:href="#DejaVuSans-31"/>
       <use xlink:href="#DejaVuSans-2e" x="63.623047"/>
       <use xlink:href="#DejaVuSans-30" x="95.410156"/>
      </g>
     </g>
    </g>
    <g id="ytick_24">
     <g id="line2d_46">
      <g>
       <use xlink:href="#mab4a2bae59" x="725.823529" y="25.92" style="stroke: #000000; stroke-width: 0.8"/>
      </g>
     </g>
     <g id="text_44">
      <!-- 1.2 -->
      <g transform="translate(702.920404 29.719219) scale(0.1 -0.1)">
       <use xlink:href="#DejaVuSans-31"/>
       <use xlink:href="#DejaVuSans-2e" x="63.623047"/>
       <use xlink:href="#DejaVuSans-32" x="95.410156"/>
      </g>
     </g>
    </g>
   </g>
   <g id="line2d_47">
    <path d="M 737.013369 49.68 
L 848.687519 49.68 
L 849.13601 168.48 
L 960.81016 168.48 
L 960.81016 168.48 
" clip-path="url(#pb06bdc3f9c)" style="fill: none; stroke: #2ca02c; stroke-linecap: square"/>
   </g>
   <g id="line2d_48">
    <path d="M 737.013369 85.32 
L 737.46186 49.354647 
L 737.91035 38.239865 
L 738.807331 54.645584 
L 739.255822 54.645584 
L 739.704312 48.645833 
L 740.152803 45.466416 
L 740.601293 48.249505 
L 741.049784 52.254082 
L 741.498275 52.254082 
L 741.946765 48.974155 
L 742.395256 47.114848 
L 742.843746 48.832263 
L 743.292237 51.414449 
L 743.740727 51.414449 
L 744.189218 49.151457 
L 744.637709 47.833975 
L 745.086199 49.079414 
L 745.53469 50.990382 
L 745.98318 50.990382 
L 746.431671 49.257751 
L 746.880161 48.234437 
L 747.328652 49.214426 
L 747.777143 50.735903 
L 748.225633 50.735903 
L 748.674124 49.327736 
L 749.122614 48.488496 
L 749.571105 49.298945 
L 750.019595 50.566978 
L 750.468086 50.566978 
L 750.916576 49.376965 
L 751.365067 48.663285 
L 751.813558 49.356537 
L 752.262048 50.447195 
L 752.710539 50.447195 
L 753.159029 49.413277 
L 753.60752 48.790337 
L 754.05601 49.3981 
L 754.504501 50.358241 
L 754.952992 50.358241 
L 755.401482 49.441015 
L 755.849973 48.886403 
L 756.298463 49.429354 
L 756.746954 50.28991 
L 757.195444 50.28991 
L 757.643935 49.462775 
L 758.092425 48.961199 
L 758.540916 49.453585 
L 758.989407 50.23607 
L 759.437897 50.23607 
L 759.886388 49.480194 
L 760.334878 49.020741 
L 760.783369 49.472811 
L 761.231859 50.192817 
L 761.68035 50.192817 
L 762.128841 49.494358 
L 762.577331 49.068952 
L 763.025822 49.488338 
L 763.474312 50.157551 
L 763.922803 50.157551 
L 764.371293 49.506013 
L 764.819784 49.108495 
L 765.268275 49.501048 
L 765.716765 50.128476 
L 766.165256 50.128476 
L 766.613746 49.515685 
L 767.062237 49.141237 
L 767.510727 49.511559 
L 767.959218 50.104315 
L 768.407708 50.104315 
L 768.856199 49.523757 
L 769.30469 49.168524 
L 769.75318 49.520311 
L 770.201671 50.084134 
L 770.650161 50.084134 
L 771.098652 49.530514 
L 771.547142 49.191346 
L 771.995633 49.52763 
L 772.444124 50.067244 
L 772.892614 50.067244 
L 773.341105 49.536169 
L 773.789595 49.210447 
L 774.238086 49.533757 
L 774.686576 50.053121 
L 775.135067 50.053121 
L 775.583557 49.540884 
L 776.032048 49.226388 
L 776.480539 49.538877 
L 776.929029 50.041367 
L 777.37752 50.041367 
L 777.82601 49.544785 
L 778.274501 49.239603 
L 778.722991 49.54313 
L 779.171482 50.031675 
L 779.619973 50.031675 
L 780.068463 49.547968 
L 780.516954 49.250423 
L 780.965444 49.546624 
L 781.413935 50.02381 
L 781.862425 50.02381 
L 782.310916 49.550506 
L 782.759407 49.259103 
L 783.207897 49.549444 
L 783.656388 50.017592 
L 784.104878 50.017592 
L 784.553369 49.552455 
L 785.001859 49.265838 
L 785.45035 49.551651 
L 785.89884 50.012885 
L 786.347331 50.012885 
L 786.795822 49.553857 
L 787.244312 49.270773 
L 787.692803 49.553294 
L 788.141293 50.009589 
L 788.589784 50.009589 
L 789.038274 49.554741 
L 789.486765 49.274008 
L 789.935256 49.554407 
L 790.383746 50.007637 
L 790.832237 50.007637 
L 791.280727 49.555124 
L 791.729218 49.275609 
L 792.177708 49.555013 
L 792.626199 50.006991 
L 793.074689 50.006991 
L 793.52318 49.555013 
L 793.971671 49.275609 
L 794.420161 49.555124 
L 794.868652 50.007637 
L 795.317142 50.007637 
L 795.765633 49.554407 
L 796.214123 49.274008 
L 796.662614 49.554741 
L 797.111105 50.009589 
L 797.559595 50.009589 
L 798.008086 49.553294 
L 798.456576 49.270773 
L 798.905067 49.553857 
L 799.353557 50.012885 
L 799.802048 50.012885 
L 800.250539 49.551651 
L 800.699029 49.265838 
L 801.14752 49.552455 
L 801.59601 50.017592 
L 802.044501 50.017592 
L 802.492991 49.549444 
L 802.941482 49.259103 
L 803.389972 49.550506 
L 803.838463 50.02381 
L 804.286954 50.02381 
L 804.735444 49.546624 
L 805.183935 49.250423 
L 805.632425 49.547968 
L 806.080916 50.031675 
L 806.529406 50.031675 
L 806.977897 49.54313 
L 807.426388 49.239603 
L 807.874878 49.544785 
L 808.323369 50.041367 
L 808.771859 50.041367 
L 809.22035 49.538877 
L 809.66884 49.226388 
L 810.117331 49.540884 
L 810.565821 50.053121 
L 811.014312 50.053121 
L 811.462803 49.533757 
L 811.911293 49.210447 
L 812.359784 49.536169 
L 812.808274 50.067244 
L 813.256765 50.067244 
L 813.705255 49.52763 
L 814.153746 49.191346 
L 814.602237 49.530514 
L 815.050727 50.084134 
L 815.499218 50.084134 
L 815.947708 49.520311 
L 816.396199 49.168524 
L 816.844689 49.523757 
L 817.29318 50.104315 
L 817.741671 50.104315 
L 818.190161 49.511559 
L 818.638652 49.141237 
L 819.087142 49.515685 
L 819.535633 50.128476 
L 819.984123 50.128476 
L 820.432614 49.501048 
L 820.881104 49.108495 
L 821.329595 49.506013 
L 821.778086 50.157551 
L 822.226576 50.157551 
L 822.675067 49.488338 
L 823.123557 49.068952 
L 823.572048 49.494358 
L 824.020538 50.192817 
L 824.469029 50.192817 
L 824.91752 49.472811 
L 825.36601 49.020741 
L 825.814501 49.480194 
L 826.262991 50.23607 
L 826.711482 50.23607 
L 827.159972 49.453585 
L 827.608463 48.961199 
L 828.056953 49.462775 
L 828.505444 50.28991 
L 828.953935 50.28991 
L 829.402425 49.429354 
L 829.850916 48.886403 
L 830.299406 49.441015 
L 830.747897 50.358241 
L 831.196387 50.358241 
L 831.644878 49.3981 
L 832.093369 48.790337 
L 832.541859 49.413277 
L 832.99035 50.447195 
L 833.43884 50.447195 
L 833.887331 49.356537 
L 834.335821 48.663285 
L 834.784312 49.376965 
L 835.232803 50.566978 
L 835.681293 50.566978 
L 836.129784 49.298945 
L 836.578274 48.488496 
L 837.026765 49.327736 
L 837.475255 50.735903 
L 837.923746 50.735903 
L 838.372236 49.214426 
L 838.820727 48.234437 
L 839.269218 49.257751 
L 839.717708 50.990382 
L 840.166199 50.990382 
L 840.614689 49.079414 
L 841.06318 47.833975 
L 841.51167 49.151457 
L 841.960161 51.414449 
L 842.408652 51.414449 
L 842.857142 48.832263 
L 843.305633 47.114848 
L 843.754123 48.974155 
L 844.202614 52.254082 
L 844.651104 52.254082 
L 845.099595 48.249505 
L 845.548085 45.466416 
L 845.996576 48.645833 
L 846.445067 54.645584 
L 846.893557 54.645584 
L 847.790538 38.239865 
L 848.239029 49.354647 
L 848.687519 85.32 
L 849.584501 168.805353 
L 850.032991 179.920135 
L 850.929972 163.514416 
L 851.378463 163.514416 
L 851.826953 169.514167 
L 852.275444 172.693584 
L 852.723935 169.910495 
L 853.172425 165.905918 
L 853.620916 165.905918 
L 854.069406 169.185845 
L 854.517897 171.045152 
L 854.966387 169.327737 
L 855.414878 166.745551 
L 855.863368 166.745551 
L 856.311859 169.008543 
L 856.76035 170.326025 
L 857.20884 169.080586 
L 857.657331 167.169618 
L 858.105821 167.169618 
L 858.554312 168.902249 
L 859.002802 169.925563 
L 859.451293 168.945574 
L 859.899784 167.424097 
L 860.348274 167.424097 
L 860.796765 168.832264 
L 861.245255 169.671504 
L 861.693746 168.861055 
L 862.142236 167.593022 
L 862.590727 167.593022 
L 863.039217 168.783035 
L 863.487708 169.496715 
L 863.936199 168.803463 
L 864.384689 167.712805 
L 864.83318 167.712805 
L 865.28167 168.746723 
L 865.730161 169.369663 
L 866.178651 168.7619 
L 866.627142 167.801759 
L 867.075633 167.801759 
L 867.524123 168.718985 
L 867.972614 169.273597 
L 868.421104 168.730646 
L 868.869595 167.87009 
L 869.318085 167.87009 
L 869.766576 168.697225 
L 870.215066 169.198801 
L 870.663557 168.706415 
L 871.112048 167.92393 
L 871.560538 167.92393 
L 872.009029 168.679806 
L 872.457519 169.139259 
L 872.90601 168.687189 
L 873.3545 167.967183 
L 873.802991 167.967183 
L 874.251482 168.665642 
L 874.699972 169.091048 
L 875.148463 168.671662 
L 875.596953 168.002449 
L 876.045444 168.002449 
L 876.493934 168.653987 
L 876.942425 169.051505 
L 877.390916 168.658952 
L 877.839406 168.031524 
L 878.287897 168.031524 
L 878.736387 168.644315 
L 879.184878 169.018763 
L 879.633368 168.648441 
L 880.081859 168.055685 
L 880.530349 168.055685 
L 880.97884 168.636243 
L 881.427331 168.991476 
L 881.875821 168.639689 
L 882.324312 168.075866 
L 882.772802 168.075866 
L 883.221293 168.629486 
L 883.669783 168.968654 
L 884.118274 168.63237 
L 884.566765 168.092756 
L 885.015255 168.092756 
L 885.463746 168.623831 
L 885.912236 168.949553 
L 886.360727 168.626243 
L 886.809217 168.106879 
L 887.257708 168.106879 
L 887.706198 168.619116 
L 888.154689 168.933612 
L 888.60318 168.621123 
L 889.05167 168.118633 
L 889.500161 168.118633 
L 889.948651 168.615215 
L 890.397142 168.920397 
L 890.845632 168.61687 
L 891.294123 168.128325 
L 891.742614 168.128325 
L 892.191104 168.612032 
L 892.639595 168.909577 
L 893.088085 168.613376 
L 893.536576 168.13619 
L 893.985066 168.13619 
L 894.433557 168.609494 
L 894.882048 168.900897 
L 895.330538 168.610556 
L 895.779029 168.142408 
L 896.227519 168.142408 
L 896.67601 168.607545 
L 897.1245 168.894162 
L 897.572991 168.608349 
L 898.021481 168.147115 
L 898.469972 168.147115 
L 898.918463 168.606143 
L 899.366953 168.889227 
L 899.815444 168.606706 
L 900.263934 168.150411 
L 900.712425 168.150411 
L 901.160915 168.605259 
L 901.609406 168.885992 
L 902.057897 168.605593 
L 902.506387 168.152363 
L 902.954878 168.152363 
L 903.403368 168.604876 
L 903.851859 168.884391 
L 904.300349 168.604987 
L 904.74884 168.153009 
L 905.19733 168.153009 
L 905.645821 168.604987 
L 906.094312 168.884391 
L 906.542802 168.604876 
L 906.991293 168.152363 
L 907.439783 168.152363 
L 907.888274 168.605593 
L 908.336764 168.885992 
L 908.785255 168.605259 
L 909.233746 168.150411 
L 909.682236 168.150411 
L 910.130727 168.606706 
L 910.579217 168.889227 
L 911.027708 168.606143 
L 911.476198 168.147115 
L 911.924689 168.147115 
L 912.37318 168.608349 
L 912.82167 168.894162 
L 913.270161 168.607545 
L 913.718651 168.142408 
L 914.167142 168.142408 
L 914.615632 168.610556 
L 915.064123 168.900897 
L 915.512613 168.609494 
L 915.961104 168.13619 
L 916.409595 168.13619 
L 916.858085 168.613376 
L 917.306576 168.909577 
L 917.755066 168.612032 
L 918.203557 168.128325 
L 918.652047 168.128325 
L 919.100538 168.61687 
L 919.549029 168.920397 
L 919.997519 168.615215 
L 920.44601 168.118633 
L 920.8945 168.118633 
L 921.342991 168.621123 
L 921.791481 168.933612 
L 922.239972 168.619116 
L 922.688462 168.106879 
L 923.136953 168.106879 
L 923.585444 168.626243 
L 924.033934 168.949553 
L 924.482425 168.623831 
L 924.930915 168.092756 
L 925.379406 168.092756 
L 925.827896 168.63237 
L 926.276387 168.968654 
L 926.724878 168.629486 
L 927.173368 168.075866 
L 927.621859 168.075866 
L 928.070349 168.639689 
L 928.51884 168.991476 
L 928.96733 168.636243 
L 929.415821 168.055685 
L 929.864312 168.055685 
L 930.312802 168.648441 
L 930.761293 169.018763 
L 931.209783 168.644315 
L 931.658274 168.031524 
L 932.106764 168.031524 
L 932.555255 168.658952 
L 933.003745 169.051505 
L 933.452236 168.653987 
L 933.900727 168.002449 
L 934.349217 168.002449 
L 934.797708 168.671662 
L 935.246198 169.091048 
L 935.694689 168.665642 
L 936.143179 167.967183 
L 936.59167 167.967183 
L 937.040161 168.687189 
L 937.488651 169.139259 
L 937.937142 168.679806 
L 938.385632 167.92393 
L 938.834123 167.92393 
L 939.282613 168.706415 
L 939.731104 169.198801 
L 940.179594 168.697225 
L 940.628085 167.87009 
L 941.076576 167.87009 
L 941.525066 168.730646 
L 941.973557 169.273597 
L 942.422047 168.718985 
L 942.870538 167.801759 
L 943.319028 167.801759 
L 943.767519 168.7619 
L 944.21601 169.369663 
L 944.6645 168.746723 
L 945.112991 167.712805 
L 945.561481 167.712805 
L 946.009972 168.803463 
L 946.458462 169.496715 
L 946.906953 168.783035 
L 947.355444 167.593022 
L 947.803934 167.593022 
L 948.252425 168.861055 
L 948.700915 169.671504 
L 949.149406 168.832264 
L 949.597896 167.424097 
L 950.046387 167.424097 
L 950.494877 168.945574 
L 950.943368 169.925563 
L 951.391859 168.902249 
L 951.840349 167.169618 
L 952.28884 167.169618 
L 952.73733 169.080586 
L 953.185821 170.326025 
L 953.634311 169.008543 
L 954.082802 166.745551 
L 954.531293 166.745551 
L 954.979783 169.327737 
L 955.428274 171.045152 
L 955.876764 169.185845 
L 956.325255 165.905918 
L 956.773745 165.905918 
L 957.222236 169.910495 
L 957.670726 172.693584 
L 958.119217 169.514167 
L 958.567708 163.514416 
L 959.016198 163.514416 
L 959.913179 179.920135 
L 960.36167 168.805353 
L 960.81016 132.84 
L 960.81016 132.84 
" clip-path="url(#pb06bdc3f9c)" style="fill: none; stroke: #1f77b4; stroke-width: 1.5; stroke-linecap: square"/>
   </g>
   <g id="patch_13">
    <path d="M 725.823529 192.24 
L 725.823529 25.92 
" style="fill: none; stroke: #000000; stroke-width: 0.8; stroke-linejoin: miter; stroke-linecap: square"/>
   </g>
   <g id="patch_14">
    <path d="M 972 192.24 
L 972 25.92 
" style="fill: none; stroke: #000000; stroke-width: 0.8; stroke-linejoin: miter; stroke-linecap: square"/>
   </g>
   <g id="patch_15">
    <path d="M 725.823529 192.24 
L 972 192.24 
" style="fill: none; stroke: #000000; stroke-width: 0.8; stroke-linejoin: miter; stroke-linecap: square"/>
   </g>
   <g id="patch_16">
    <path d="M 725.823529 25.92 
L 972 25.92 
" style="fill: none; stroke: #000000; stroke-width: 0.8; stroke-linejoin: miter; stroke-linecap: square"/>
   </g>
   <g id="text_45">
    <!-- Reconstruction avec 100 coefficients -->
    <g transform="translate(738.125515 19.92) scale(0.12 -0.12)">
     <use xlink:href="#DejaVuSans-52"/>
     <use xlink:href="#DejaVuSans-65" x="64.982422"/>
     <use xlink:href="#DejaVuSans-63" x="126.505859"/>
     <use xlink:href="#DejaVuSans-6f" x="181.486328"/>
     <use xlink:href="#DejaVuSans-6e" x="242.667969"/>
     <use xlink:href="#DejaVuSans-73" x="306.046875"/>
     <use xlink:href="#DejaVuSans-74" x="358.146484"/>
     <use xlink:href="#DejaVuSans-72" x="397.355469"/>
     <use xlink:href="#DejaVuSans-75" x="438.46875"/>
     <use xlink:href="#DejaVuSans-63" x="501.847656"/>
     <use xlink:href="#DejaVuSans-74" x="556.828125"/>
     <use xlink:href="#DejaVuSans-69" x="596.037109"/>
     <use xlink:href="#DejaVuSans-6f" x="623.820312"/>
     <use xlink:href="#DejaVuSans-6e" x="685.001953"/>
     <use xlink:href="#DejaVuSans-20" x="748.380859"/>
     <use xlink:href="#DejaVuSans-61" x="780.167969"/>
     <use xlink:href="#DejaVuSans-76" x="841.447266"/>
     <use xlink:href="#DejaVuSans-65" x="900.626953"/>
     <use xlink:href="#DejaVuSans-63" x="962.150391"/>
     <use xlink:href="#DejaVuSans-20" x="1017.130859"/>
     <use xlink:href="#DejaVuSans-31" x="1048.917969"/>
     <use xlink:href="#DejaVuSans-30" x="1112.541016"/>
     <use xlink:href="#DejaVuSans-30" x="1176.164062"/>
     <use xlink:href="#DejaVuSans-20" x="1239.787109"/>
     <use xlink:href="#DejaVuSans-63" x="1271.574219"/>
     <use xlink:href="#DejaVuSans-6f" x="1326.554688"/>
     <use xlink:href="#DejaVuSans-65" x="1387.736328"/>
     <use xlink:href="#DejaVuSans-66" x="1449.259766"/>
     <use xlink:href="#DejaVuSans-66" x="1484.464844"/>
     <use xlink:href="#DejaVuSans-69" x="1519.669922"/>
     <use xlink:href="#DejaVuSans-63" x="1547.453125"/>
     <use xlink:href="#DejaVuSans-69" x="1602.433594"/>
     <use xlink:href="#DejaVuSans-65" x="1630.216797"/>
     <use xlink:href="#DejaVuSans-6e" x="1691.740234"/>
     <use xlink:href="#DejaVuSans-74" x="1755.119141"/>
     <use xlink:href="#DejaVuSans-73" x="1794.328125"/>
    </g>
   </g>
  </g>
 </g>
 <defs>
  <clipPath id="p2e4d31cf7d">
   <rect x="135" y="25.92" width="246.176471" height="166.32"/>
  </clipPath>
  <clipPath id="p104fd3b9f2">
   <rect x="430.411765" y="25.92" width="246.176471" height="166.32"/>
  </clipPath>
  <clipPath id="pb06bdc3f9c">
   <rect x="725.823529" y="25.92" width="246.176471" height="166.32"/>
  </clipPath>
 </defs>
</svg>
