<?xml version="1.0" encoding="utf-8" standalone="no"?>
<!DOCTYPE svg PUBLIC "-//W3C//DTD SVG 1.1//EN"
  "http://www.w3.org/Graphics/SVG/1.1/DTD/svg11.dtd">
<svg xmlns:xlink="http://www.w3.org/1999/xlink" width="720pt" height="216pt" viewBox="0 0 720 216" xmlns="http://www.w3.org/2000/svg" version="1.1">
 <metadata>
  <rdf:RDF xmlns:dc="http://purl.org/dc/elements/1.1/" xmlns:cc="http://creativecommons.org/ns#" xmlns:rdf="http://www.w3.org/1999/02/22-rdf-syntax-ns#">
   <cc:Work>
    <dc:type rdf:resource="http://purl.org/dc/dcmitype/StillImage"/>
    <dc:date>2024-10-25T12:55:00.277817</dc:date>
    <dc:format>image/svg+xml</dc:format>
    <dc:creator>
     <cc:Agent>
      <dc:title>Matplotlib v3.7.2, https://matplotlib.org/</dc:title>
     </cc:Agent>
    </dc:creator>
   </cc:Work>
  </rdf:RDF>
 </metadata>
 <defs>
  <style type="text/css">*{stroke-linejoin: round; stroke-linecap: butt}</style>
 </defs>
 <g id="figure_1">
  <g id="patch_1">
   <path d="M 0 216 
L 720 216 
L 720 0 
L 0 0 
z
" style="fill: #ffffff"/>
  </g>
  <g id="axes_1">
   <g id="patch_2">
    <path d="M 90 192.24 
L 343.636364 192.24 
L 343.636364 25.92 
L 90 25.92 
z
" style="fill: #ffffff"/>
   </g>
   <g id="matplotlib.axis_1">
    <g id="xtick_1">
     <g id="line2d_1">
      <defs>
       <path id="m9f52adf6b9" d="M 0 0 
L 0 3.5 
" style="stroke: #000000; stroke-width: 0.8"/>
      </defs>
      <g>
       <use xlink:href="#m9f52adf6b9" x="101.528926" y="192.24" style="stroke: #000000; stroke-width: 0.8"/>
      </g>
     </g>
     <g id="text_1">
      <!-- −5 -->
      <g transform="translate(94.157832 206.838437) scale(0.1 -0.1)">
       <defs>
        <path id="DejaVuSans-2212" d="M 678 2272 
L 4684 2272 
L 4684 1741 
L 678 1741 
L 678 2272 
z
" transform="scale(0.015625)"/>
        <path id="DejaVuSans-35" d="M 691 4666 
L 3169 4666 
L 3169 4134 
L 1269 4134 
L 1269 2991 
Q 1406 3038 1543 3061 
Q 1681 3084 1819 3084 
Q 2600 3084 3056 2656 
Q 3513 2228 3513 1497 
Q 3513 744 3044 326 
Q 2575 -91 1722 -91 
Q 1428 -91 1123 -41 
Q 819 9 494 109 
L 494 744 
Q 775 591 1075 516 
Q 1375 441 1709 441 
Q 2250 441 2565 725 
Q 2881 1009 2881 1497 
Q 2881 1984 2565 2268 
Q 2250 2553 1709 2553 
Q 1456 2553 1204 2497 
Q 953 2441 691 2322 
L 691 4666 
z
" transform="scale(0.015625)"/>
       </defs>
       <use xlink:href="#DejaVuSans-2212"/>
       <use xlink:href="#DejaVuSans-35" x="83.789062"/>
      </g>
     </g>
    </g>
    <g id="xtick_2">
     <g id="line2d_2">
      <g>
       <use xlink:href="#m9f52adf6b9" x="124.609858" y="192.24" style="stroke: #000000; stroke-width: 0.8"/>
      </g>
     </g>
     <g id="text_2">
      <!-- −4 -->
      <g transform="translate(117.238764 206.838437) scale(0.1 -0.1)">
       <defs>
        <path id="DejaVuSans-34" d="M 2419 4116 
L 825 1625 
L 2419 1625 
L 2419 4116 
z
M 2253 4666 
L 3047 4666 
L 3047 1625 
L 3713 1625 
L 3713 1100 
L 3047 1100 
L 3047 0 
L 2419 0 
L 2419 1100 
L 313 1100 
L 313 1709 
L 2253 4666 
z
" transform="scale(0.015625)"/>
       </defs>
       <use xlink:href="#DejaVuSans-2212"/>
       <use xlink:href="#DejaVuSans-34" x="83.789062"/>
      </g>
     </g>
    </g>
    <g id="xtick_3">
     <g id="line2d_3">
      <g>
       <use xlink:href="#m9f52adf6b9" x="147.69079" y="192.24" style="stroke: #000000; stroke-width: 0.8"/>
      </g>
     </g>
     <g id="text_3">
      <!-- −3 -->
      <g transform="translate(140.319696 206.838437) scale(0.1 -0.1)">
       <defs>
        <path id="DejaVuSans-33" d="M 2597 2516 
Q 3050 2419 3304 2112 
Q 3559 1806 3559 1356 
Q 3559 666 3084 287 
Q 2609 -91 1734 -91 
Q 1441 -91 1130 -33 
Q 819 25 488 141 
L 488 750 
Q 750 597 1062 519 
Q 1375 441 1716 441 
Q 2309 441 2620 675 
Q 2931 909 2931 1356 
Q 2931 1769 2642 2001 
Q 2353 2234 1838 2234 
L 1294 2234 
L 1294 2753 
L 1863 2753 
Q 2328 2753 2575 2939 
Q 2822 3125 2822 3475 
Q 2822 3834 2567 4026 
Q 2313 4219 1838 4219 
Q 1578 4219 1281 4162 
Q 984 4106 628 3988 
L 628 4550 
Q 988 4650 1302 4700 
Q 1616 4750 1894 4750 
Q 2613 4750 3031 4423 
Q 3450 4097 3450 3541 
Q 3450 3153 3228 2886 
Q 3006 2619 2597 2516 
z
" transform="scale(0.015625)"/>
       </defs>
       <use xlink:href="#DejaVuSans-2212"/>
       <use xlink:href="#DejaVuSans-33" x="83.789062"/>
      </g>
     </g>
    </g>
    <g id="xtick_4">
     <g id="line2d_4">
      <g>
       <use xlink:href="#m9f52adf6b9" x="170.771722" y="192.24" style="stroke: #000000; stroke-width: 0.8"/>
      </g>
     </g>
     <g id="text_4">
      <!-- −2 -->
      <g transform="translate(163.400628 206.838437) scale(0.1 -0.1)">
       <defs>
        <path id="DejaVuSans-32" d="M 1228 531 
L 3431 531 
L 3431 0 
L 469 0 
L 469 531 
Q 828 903 1448 1529 
Q 2069 2156 2228 2338 
Q 2531 2678 2651 2914 
Q 2772 3150 2772 3378 
Q 2772 3750 2511 3984 
Q 2250 4219 1831 4219 
Q 1534 4219 1204 4116 
Q 875 4013 500 3803 
L 500 4441 
Q 881 4594 1212 4672 
Q 1544 4750 1819 4750 
Q 2544 4750 2975 4387 
Q 3406 4025 3406 3419 
Q 3406 3131 3298 2873 
Q 3191 2616 2906 2266 
Q 2828 2175 2409 1742 
Q 1991 1309 1228 531 
z
" transform="scale(0.015625)"/>
       </defs>
       <use xlink:href="#DejaVuSans-2212"/>
       <use xlink:href="#DejaVuSans-32" x="83.789062"/>
      </g>
     </g>
    </g>
    <g id="xtick_5">
     <g id="line2d_5">
      <g>
       <use xlink:href="#m9f52adf6b9" x="193.852654" y="192.24" style="stroke: #000000; stroke-width: 0.8"/>
      </g>
     </g>
     <g id="text_5">
      <!-- −1 -->
      <g transform="translate(186.481561 206.838437) scale(0.1 -0.1)">
       <defs>
        <path id="DejaVuSans-31" d="M 794 531 
L 1825 531 
L 1825 4091 
L 703 3866 
L 703 4441 
L 1819 4666 
L 2450 4666 
L 2450 531 
L 3481 531 
L 3481 0 
L 794 0 
L 794 531 
z
" transform="scale(0.015625)"/>
       </defs>
       <use xlink:href="#DejaVuSans-2212"/>
       <use xlink:href="#DejaVuSans-31" x="83.789062"/>
      </g>
     </g>
    </g>
    <g id="xtick_6">
     <g id="line2d_6">
      <g>
       <use xlink:href="#m9f52adf6b9" x="216.933586" y="192.24" style="stroke: #000000; stroke-width: 0.8"/>
      </g>
     </g>
     <g id="text_6">
      <!-- 0 -->
      <g transform="translate(213.752336 206.838437) scale(0.1 -0.1)">
       <defs>
        <path id="DejaVuSans-30" d="M 2034 4250 
Q 1547 4250 1301 3770 
Q 1056 3291 1056 2328 
Q 1056 1369 1301 889 
Q 1547 409 2034 409 
Q 2525 409 2770 889 
Q 3016 1369 3016 2328 
Q 3016 3291 2770 3770 
Q 2525 4250 2034 4250 
z
M 2034 4750 
Q 2819 4750 3233 4129 
Q 3647 3509 3647 2328 
Q 3647 1150 3233 529 
Q 2819 -91 2034 -91 
Q 1250 -91 836 529 
Q 422 1150 422 2328 
Q 422 3509 836 4129 
Q 1250 4750 2034 4750 
z
" transform="scale(0.015625)"/>
       </defs>
       <use xlink:href="#DejaVuSans-30"/>
      </g>
     </g>
    </g>
    <g id="xtick_7">
     <g id="line2d_7">
      <g>
       <use xlink:href="#m9f52adf6b9" x="240.014519" y="192.24" style="stroke: #000000; stroke-width: 0.8"/>
      </g>
     </g>
     <g id="text_7">
      <!-- 1 -->
      <g transform="translate(236.833269 206.838437) scale(0.1 -0.1)">
       <use xlink:href="#DejaVuSans-31"/>
      </g>
     </g>
    </g>
    <g id="xtick_8">
     <g id="line2d_8">
      <g>
       <use xlink:href="#m9f52adf6b9" x="263.095451" y="192.24" style="stroke: #000000; stroke-width: 0.8"/>
      </g>
     </g>
     <g id="text_8">
      <!-- 2 -->
      <g transform="translate(259.914201 206.838437) scale(0.1 -0.1)">
       <use xlink:href="#DejaVuSans-32"/>
      </g>
     </g>
    </g>
    <g id="xtick_9">
     <g id="line2d_9">
      <g>
       <use xlink:href="#m9f52adf6b9" x="286.176383" y="192.24" style="stroke: #000000; stroke-width: 0.8"/>
      </g>
     </g>
     <g id="text_9">
      <!-- 3 -->
      <g transform="translate(282.995133 206.838437) scale(0.1 -0.1)">
       <use xlink:href="#DejaVuSans-33"/>
      </g>
     </g>
    </g>
    <g id="xtick_10">
     <g id="line2d_10">
      <g>
       <use xlink:href="#m9f52adf6b9" x="309.257315" y="192.24" style="stroke: #000000; stroke-width: 0.8"/>
      </g>
     </g>
     <g id="text_10">
      <!-- 4 -->
      <g transform="translate(306.076065 206.838437) scale(0.1 -0.1)">
       <use xlink:href="#DejaVuSans-34"/>
      </g>
     </g>
    </g>
    <g id="xtick_11">
     <g id="line2d_11">
      <g>
       <use xlink:href="#m9f52adf6b9" x="332.338247" y="192.24" style="stroke: #000000; stroke-width: 0.8"/>
      </g>
     </g>
     <g id="text_11">
      <!-- 5 -->
      <g transform="translate(329.156997 206.838437) scale(0.1 -0.1)">
       <use xlink:href="#DejaVuSans-35"/>
      </g>
     </g>
    </g>
    <g id="text_12">
     <!-- $t$ -->
     <g transform="translate(214.818182 220.516562) scale(0.1 -0.1)">
      <defs>
       <path id="DejaVuSans-Oblique-74" d="M 2706 3500 
L 2619 3053 
L 1472 3053 
L 1100 1153 
Q 1081 1047 1072 975 
Q 1063 903 1063 863 
Q 1063 663 1183 572 
Q 1303 481 1569 481 
L 2150 481 
L 2053 0 
L 1503 0 
Q 991 0 739 200 
Q 488 400 488 806 
Q 488 878 497 964 
Q 506 1050 525 1153 
L 897 3053 
L 409 3053 
L 500 3500 
L 978 3500 
L 1172 4494 
L 1747 4494 
L 1556 3500 
L 2706 3500 
z
" transform="scale(0.015625)"/>
      </defs>
      <use xlink:href="#DejaVuSans-Oblique-74" transform="translate(0 0.78125)"/>
     </g>
    </g>
   </g>
   <g id="matplotlib.axis_2">
    <g id="ytick_1">
     <g id="line2d_12">
      <defs>
       <path id="m4365e3ab86" d="M 0 0 
L -3.5 0 
" style="stroke: #000000; stroke-width: 0.8"/>
      </defs>
      <g>
       <use xlink:href="#m4365e3ab86" x="90" y="178.322797" style="stroke: #000000; stroke-width: 0.8"/>
      </g>
     </g>
     <g id="text_13">
      <!-- −3 -->
      <g transform="translate(68.257812 182.122015) scale(0.1 -0.1)">
       <use xlink:href="#DejaVuSans-2212"/>
       <use xlink:href="#DejaVuSans-33" x="83.789062"/>
      </g>
     </g>
    </g>
    <g id="ytick_2">
     <g id="line2d_13">
      <g>
       <use xlink:href="#m4365e3ab86" x="90" y="155.241864" style="stroke: #000000; stroke-width: 0.8"/>
      </g>
     </g>
     <g id="text_14">
      <!-- −2 -->
      <g transform="translate(68.257812 159.041083) scale(0.1 -0.1)">
       <use xlink:href="#DejaVuSans-2212"/>
       <use xlink:href="#DejaVuSans-32" x="83.789062"/>
      </g>
     </g>
    </g>
    <g id="ytick_3">
     <g id="line2d_14">
      <g>
       <use xlink:href="#m4365e3ab86" x="90" y="132.160932" style="stroke: #000000; stroke-width: 0.8"/>
      </g>
     </g>
     <g id="text_15">
      <!-- −1 -->
      <g transform="translate(68.257812 135.960151) scale(0.1 -0.1)">
       <use xlink:href="#DejaVuSans-2212"/>
       <use xlink:href="#DejaVuSans-31" x="83.789062"/>
      </g>
     </g>
    </g>
    <g id="ytick_4">
     <g id="line2d_15">
      <g>
       <use xlink:href="#m4365e3ab86" x="90" y="109.08" style="stroke: #000000; stroke-width: 0.8"/>
      </g>
     </g>
     <g id="text_16">
      <!-- 0 -->
      <g transform="translate(76.6375 112.879219) scale(0.1 -0.1)">
       <use xlink:href="#DejaVuSans-30"/>
      </g>
     </g>
    </g>
    <g id="ytick_5">
     <g id="line2d_16">
      <g>
       <use xlink:href="#m4365e3ab86" x="90" y="85.999068" style="stroke: #000000; stroke-width: 0.8"/>
      </g>
     </g>
     <g id="text_17">
      <!-- 1 -->
      <g transform="translate(76.6375 89.798287) scale(0.1 -0.1)">
       <use xlink:href="#DejaVuSans-31"/>
      </g>
     </g>
    </g>
    <g id="ytick_6">
     <g id="line2d_17">
      <g>
       <use xlink:href="#m4365e3ab86" x="90" y="62.918136" style="stroke: #000000; stroke-width: 0.8"/>
      </g>
     </g>
     <g id="text_18">
      <!-- 2 -->
      <g transform="translate(76.6375 66.717354) scale(0.1 -0.1)">
       <use xlink:href="#DejaVuSans-32"/>
      </g>
     </g>
    </g>
    <g id="ytick_7">
     <g id="line2d_18">
      <g>
       <use xlink:href="#m4365e3ab86" x="90" y="39.837203" style="stroke: #000000; stroke-width: 0.8"/>
      </g>
     </g>
     <g id="text_19">
      <!-- 3 -->
      <g transform="translate(76.6375 43.636422) scale(0.1 -0.1)">
       <use xlink:href="#DejaVuSans-33"/>
      </g>
     </g>
    </g>
    <g id="text_20">
     <!-- $x(t)$ -->
     <g transform="translate(62.178125 117.93) rotate(-90) scale(0.1 -0.1)">
      <defs>
       <path id="DejaVuSans-Oblique-78" d="M 3841 3500 
L 2234 1784 
L 3219 0 
L 2559 0 
L 1819 1388 
L 531 0 
L -166 0 
L 1556 1844 
L 641 3500 
L 1300 3500 
L 1972 2234 
L 3144 3500 
L 3841 3500 
z
" transform="scale(0.015625)"/>
       <path id="DejaVuSans-28" d="M 1984 4856 
Q 1566 4138 1362 3434 
Q 1159 2731 1159 2009 
Q 1159 1288 1364 580 
Q 1569 -128 1984 -844 
L 1484 -844 
Q 1016 -109 783 600 
Q 550 1309 550 2009 
Q 550 2706 781 3412 
Q 1013 4119 1484 4856 
L 1984 4856 
z
" transform="scale(0.015625)"/>
       <path id="DejaVuSans-29" d="M 513 4856 
L 1013 4856 
Q 1481 4119 1714 3412 
Q 1947 2706 1947 2009 
Q 1947 1309 1714 600 
Q 1481 -109 1013 -844 
L 513 -844 
Q 928 -128 1133 580 
Q 1338 1288 1338 2009 
Q 1338 2731 1133 3434 
Q 928 4138 513 4856 
z
" transform="scale(0.015625)"/>
      </defs>
      <use xlink:href="#DejaVuSans-Oblique-78" transform="translate(0 0.125)"/>
      <use xlink:href="#DejaVuSans-28" transform="translate(59.179688 0.125)"/>
      <use xlink:href="#DejaVuSans-Oblique-74" transform="translate(98.193359 0.125)"/>
      <use xlink:href="#DejaVuSans-29" transform="translate(137.402344 0.125)"/>
     </g>
    </g>
   </g>
   <g id="line2d_19">
    <path d="M 101.528926 109.08 
L 103.60621 96.712618 
L 104.760256 91.295836 
L 105.452684 88.854025 
L 106.145112 87.128729 
L 106.606731 86.407895 
L 107.068349 86.044613 
L 107.529968 86.044613 
L 107.991587 86.407895 
L 108.453205 87.128729 
L 109.145633 88.854025 
L 109.838061 91.295836 
L 110.761298 95.513368 
L 111.915345 101.9476 
L 115.608294 123.79234 
L 116.531532 127.752866 
L 117.223959 129.964252 
L 117.916387 131.435802 
L 118.378006 131.978932 
L 118.839625 132.160932 
L 119.301243 131.978932 
L 119.762862 131.435802 
L 120.224481 130.540108 
L 120.916909 128.567876 
L 121.609337 125.905275 
L 122.532574 121.447382 
L 123.91743 113.404935 
L 126.687142 96.712618 
L 127.841188 91.295836 
L 128.533616 88.854025 
L 129.226044 87.128729 
L 129.687663 86.407895 
L 130.149282 86.044613 
L 130.6109 86.044613 
L 131.072519 86.407895 
L 131.534137 87.128729 
L 132.226565 88.854025 
L 132.918993 91.295836 
L 133.842231 95.513368 
L 134.996277 101.9476 
L 138.689226 123.79234 
L 139.612464 127.752866 
L 140.304892 129.964252 
L 140.99732 131.435802 
L 141.458938 131.978932 
L 141.920557 132.160932 
L 142.382176 131.978932 
L 142.843794 131.435802 
L 143.305413 130.540108 
L 143.997841 128.567876 
L 144.690269 125.905275 
L 145.613506 121.447382 
L 146.998362 113.404935 
L 149.768074 96.712618 
L 150.92212 91.295836 
L 151.614548 88.854025 
L 152.306976 87.128729 
L 152.768595 86.407895 
L 153.230214 86.044613 
L 153.691832 86.044613 
L 154.153451 86.407895 
L 154.61507 87.128729 
L 155.307498 88.854025 
L 155.999926 91.295836 
L 156.923163 95.513368 
L 158.077209 101.9476 
L 161.770159 123.79234 
L 162.693396 127.752866 
L 163.385824 129.964252 
L 164.078252 131.435802 
L 164.53987 131.978932 
L 165.001489 132.160932 
L 165.463108 131.978932 
L 165.924726 131.435802 
L 166.386345 130.540108 
L 167.078773 128.567876 
L 167.771201 125.905275 
L 168.694438 121.447382 
L 170.079294 113.404935 
L 172.849006 96.712618 
L 174.003053 91.295836 
L 174.695481 88.854025 
L 175.387909 87.128729 
L 175.849527 86.407895 
L 176.311146 86.044613 
L 176.772765 86.044613 
L 177.234383 86.407895 
L 177.696002 87.128729 
L 178.38843 88.854025 
L 179.080858 91.295836 
L 180.004095 95.513368 
L 181.158142 101.9476 
L 184.851091 123.79234 
L 185.774328 127.752866 
L 186.466756 129.964252 
L 187.159184 131.435802 
L 187.620803 131.978932 
L 188.082421 132.160932 
L 188.54404 131.978932 
L 189.005659 131.435802 
L 189.467277 130.540108 
L 190.159705 128.567876 
L 190.852133 125.905275 
L 191.77537 121.447382 
L 193.160226 113.404935 
L 195.929938 96.712618 
L 197.083985 91.295836 
L 197.776413 88.854025 
L 198.468841 87.128729 
L 198.930459 86.407895 
L 199.392078 86.044613 
L 199.853697 86.044613 
L 200.315315 86.407895 
L 200.776934 87.128729 
L 201.469362 88.854025 
L 202.16179 91.295836 
L 203.085027 95.513368 
L 204.239074 101.9476 
L 207.932023 123.79234 
L 208.85526 127.752866 
L 209.547688 129.964252 
L 210.240116 131.435802 
L 210.701735 131.978932 
L 211.163353 132.160932 
L 211.624972 131.978932 
L 212.086591 131.435802 
L 212.548209 130.540108 
L 213.240637 128.567876 
L 213.933065 125.905275 
L 214.856303 121.447382 
L 216.241159 113.404935 
L 219.01087 96.712618 
L 220.164917 91.295836 
L 220.857345 88.854025 
L 221.549773 87.128729 
L 222.011392 86.407895 
L 222.47301 86.044613 
L 222.934629 86.044613 
L 223.396247 86.407895 
L 223.857866 87.128729 
L 224.550294 88.854025 
L 225.242722 91.295836 
L 226.165959 95.513368 
L 227.320006 101.9476 
L 231.012955 123.79234 
L 231.936192 127.752866 
L 232.62862 129.964252 
L 233.321048 131.435802 
L 233.782667 131.978932 
L 234.244286 132.160932 
L 234.705904 131.978932 
L 235.167523 131.435802 
L 235.629142 130.540108 
L 236.32157 128.567876 
L 237.013997 125.905275 
L 237.937235 121.447382 
L 239.322091 113.404935 
L 242.091803 96.712618 
L 243.245849 91.295836 
L 243.938277 88.854025 
L 244.630705 87.128729 
L 245.092324 86.407895 
L 245.553942 86.044613 
L 246.015561 86.044613 
L 246.47718 86.407895 
L 246.938798 87.128729 
L 247.631226 88.854025 
L 248.323654 91.295836 
L 249.246892 95.513368 
L 250.400938 101.9476 
L 254.093887 123.79234 
L 255.017125 127.752866 
L 255.709553 129.964252 
L 256.40198 131.435802 
L 256.863599 131.978932 
L 257.325218 132.160932 
L 257.786836 131.978932 
L 258.248455 131.435802 
L 258.710074 130.540108 
L 259.402502 128.567876 
L 260.09493 125.905275 
L 261.018167 121.447382 
L 262.403023 113.404935 
L 265.172735 96.712618 
L 266.326781 91.295836 
L 267.019209 88.854025 
L 267.711637 87.128729 
L 268.173256 86.407895 
L 268.634875 86.044613 
L 269.096493 86.044613 
L 269.558112 86.407895 
L 270.01973 87.128729 
L 270.712158 88.854025 
L 271.404586 91.295836 
L 272.327824 95.513368 
L 273.48187 101.9476 
L 277.174819 123.79234 
L 278.098057 127.752866 
L 278.790485 129.964252 
L 279.482913 131.435802 
L 279.944531 131.978932 
L 280.40615 132.160932 
L 280.867769 131.978932 
L 281.329387 131.435802 
L 281.791006 130.540108 
L 282.483434 128.567876 
L 283.175862 125.905275 
L 284.099099 121.447382 
L 285.483955 113.404935 
L 288.253667 96.712618 
L 289.407713 91.295836 
L 290.100141 88.854025 
L 290.792569 87.128729 
L 291.254188 86.407895 
L 291.715807 86.044613 
L 292.177425 86.044613 
L 292.639044 86.407895 
L 293.100663 87.128729 
L 293.793091 88.854025 
L 294.485519 91.295836 
L 295.408756 95.513368 
L 296.562802 101.9476 
L 300.255752 123.79234 
L 301.178989 127.752866 
L 301.871417 129.964252 
L 302.563845 131.435802 
L 303.025463 131.978932 
L 303.487082 132.160932 
L 303.948701 131.978932 
L 304.410319 131.435802 
L 304.871938 130.540108 
L 305.564366 128.567876 
L 306.256794 125.905275 
L 307.180031 121.447382 
L 308.564887 113.404935 
L 311.334599 96.712618 
L 312.488646 91.295836 
L 313.181074 88.854025 
L 313.873502 87.128729 
L 314.33512 86.407895 
L 314.796739 86.044613 
L 315.258358 86.044613 
L 315.719976 86.407895 
L 316.181595 87.128729 
L 316.874023 88.854025 
L 317.566451 91.295836 
L 318.489688 95.513368 
L 319.643735 101.9476 
L 323.336684 123.79234 
L 324.259921 127.752866 
L 324.952349 129.964252 
L 325.644777 131.435802 
L 326.106396 131.978932 
L 326.568014 132.160932 
L 327.029633 131.978932 
L 327.491252 131.435802 
L 327.95287 130.540108 
L 328.645298 128.567876 
L 329.337726 125.905275 
L 330.260963 121.447382 
L 331.645819 113.404935 
L 332.107438 110.529264 
L 332.107438 110.529264 
" clip-path="url(#pb265620d84)" style="fill: none; stroke: #1f77b4; stroke-width: 1.5; stroke-linecap: square"/>
   </g>
   <g id="patch_3">
    <path d="M 90 192.24 
L 90 25.92 
" style="fill: none; stroke: #000000; stroke-width: 0.8; stroke-linejoin: miter; stroke-linecap: square"/>
   </g>
   <g id="patch_4">
    <path d="M 343.636364 192.24 
L 343.636364 25.92 
" style="fill: none; stroke: #000000; stroke-width: 0.8; stroke-linejoin: miter; stroke-linecap: square"/>
   </g>
   <g id="patch_5">
    <path d="M 90 192.24 
L 343.636364 192.24 
" style="fill: none; stroke: #000000; stroke-width: 0.8; stroke-linejoin: miter; stroke-linecap: square"/>
   </g>
   <g id="patch_6">
    <path d="M 90 25.92 
L 343.636364 25.92 
" style="fill: none; stroke: #000000; stroke-width: 0.8; stroke-linejoin: miter; stroke-linecap: square"/>
   </g>
   <g id="text_21">
    <!-- $A = 1$, $f = 1$, $\varphi = 0$ -->
    <g transform="translate(165.458182 19.92) scale(0.12 -0.12)">
     <defs>
      <path id="DejaVuSans-Oblique-41" d="M 2356 4666 
L 3072 4666 
L 3938 0 
L 3278 0 
L 3084 1197 
L 984 1197 
L 325 0 
L -341 0 
L 2356 4666 
z
M 2584 4044 
L 1275 1722 
L 2988 1722 
L 2584 4044 
z
" transform="scale(0.015625)"/>
      <path id="DejaVuSans-3d" d="M 678 2906 
L 4684 2906 
L 4684 2381 
L 678 2381 
L 678 2906 
z
M 678 1631 
L 4684 1631 
L 4684 1100 
L 678 1100 
L 678 1631 
z
" transform="scale(0.015625)"/>
      <path id="DejaVuSans-2c" d="M 750 794 
L 1409 794 
L 1409 256 
L 897 -744 
L 494 -744 
L 750 256 
L 750 794 
z
" transform="scale(0.015625)"/>
      <path id="DejaVuSans-20" transform="scale(0.015625)"/>
      <path id="DejaVuSans-Oblique-66" d="M 3059 4863 
L 2969 4384 
L 2419 4384 
Q 2106 4384 1964 4261 
Q 1822 4138 1753 3809 
L 1691 3500 
L 2638 3500 
L 2553 3053 
L 1606 3053 
L 1013 0 
L 434 0 
L 1031 3053 
L 481 3053 
L 563 3500 
L 1113 3500 
L 1159 3744 
Q 1278 4363 1576 4613 
Q 1875 4863 2516 4863 
L 3059 4863 
z
" transform="scale(0.015625)"/>
      <path id="DejaVuSans-Oblique-3c6" d="M 2969 3034 
Q 2766 3034 2675 2581 
L 2259 438 
Q 2553 438 2916 763 
Q 3244 1053 3375 1750 
Q 3497 2400 3300 2750 
Q 3138 3034 2969 3034 
z
M 3063 3525 
Q 3513 3525 3819 3113 
Q 4147 2672 3981 1750 
Q 3828 903 3291 400 
Q 2784 -75 2159 -75 
L 1916 -1331 
L 1344 -1331 
L 1588 -78 
Q 963 -78 641 400 
Q 309 888 475 1747 
Q 647 2641 1166 3097 
Q 1556 3438 2084 3525 
L 1984 3016 
Q 1766 2944 1538 2700 
Q 1194 2341 1081 1747 
Q 963 1116 1156 756 
Q 1334 434 1688 434 
L 2103 2581 
Q 2288 3525 3063 3525 
z
" transform="scale(0.015625)"/>
     </defs>
     <use xlink:href="#DejaVuSans-Oblique-41" transform="translate(0 0.015625)"/>
     <use xlink:href="#DejaVuSans-3d" transform="translate(87.890625 0.015625)"/>
     <use xlink:href="#DejaVuSans-31" transform="translate(191.162109 0.015625)"/>
     <use xlink:href="#DejaVuSans-2c" transform="translate(254.785156 0.015625)"/>
     <use xlink:href="#DejaVuSans-20" transform="translate(286.572266 0.015625)"/>
     <use xlink:href="#DejaVuSans-Oblique-66" transform="translate(318.359375 0.015625)"/>
     <use xlink:href="#DejaVuSans-3d" transform="translate(373.046875 0.015625)"/>
     <use xlink:href="#DejaVuSans-31" transform="translate(476.318359 0.015625)"/>
     <use xlink:href="#DejaVuSans-2c" transform="translate(539.941406 0.015625)"/>
     <use xlink:href="#DejaVuSans-20" transform="translate(571.728516 0.015625)"/>
     <use xlink:href="#DejaVuSans-Oblique-3c6" transform="translate(603.515625 0.015625)"/>
     <use xlink:href="#DejaVuSans-3d" transform="translate(688.964844 0.015625)"/>
     <use xlink:href="#DejaVuSans-30" transform="translate(792.236328 0.015625)"/>
    </g>
   </g>
  </g>
  <g id="axes_2">
   <g id="patch_7">
    <path d="M 394.363636 192.24 
L 648 192.24 
L 648 25.92 
L 394.363636 25.92 
z
" style="fill: #ffffff"/>
   </g>
   <g id="matplotlib.axis_3">
    <g id="xtick_12">
     <g id="line2d_20">
      <g>
       <use xlink:href="#m9f52adf6b9" x="405.892562" y="192.24" style="stroke: #000000; stroke-width: 0.8"/>
      </g>
     </g>
     <g id="text_22">
      <!-- −5 -->
      <g transform="translate(398.521468 206.838437) scale(0.1 -0.1)">
       <use xlink:href="#DejaVuSans-2212"/>
       <use xlink:href="#DejaVuSans-35" x="83.789062"/>
      </g>
     </g>
    </g>
    <g id="xtick_13">
     <g id="line2d_21">
      <g>
       <use xlink:href="#m9f52adf6b9" x="428.973494" y="192.24" style="stroke: #000000; stroke-width: 0.8"/>
      </g>
     </g>
     <g id="text_23">
      <!-- −4 -->
      <g transform="translate(421.6024 206.838437) scale(0.1 -0.1)">
       <use xlink:href="#DejaVuSans-2212"/>
       <use xlink:href="#DejaVuSans-34" x="83.789062"/>
      </g>
     </g>
    </g>
    <g id="xtick_14">
     <g id="line2d_22">
      <g>
       <use xlink:href="#m9f52adf6b9" x="452.054426" y="192.24" style="stroke: #000000; stroke-width: 0.8"/>
      </g>
     </g>
     <g id="text_24">
      <!-- −3 -->
      <g transform="translate(444.683333 206.838437) scale(0.1 -0.1)">
       <use xlink:href="#DejaVuSans-2212"/>
       <use xlink:href="#DejaVuSans-33" x="83.789062"/>
      </g>
     </g>
    </g>
    <g id="xtick_15">
     <g id="line2d_23">
      <g>
       <use xlink:href="#m9f52adf6b9" x="475.135358" y="192.24" style="stroke: #000000; stroke-width: 0.8"/>
      </g>
     </g>
     <g id="text_25">
      <!-- −2 -->
      <g transform="translate(467.764265 206.838437) scale(0.1 -0.1)">
       <use xlink:href="#DejaVuSans-2212"/>
       <use xlink:href="#DejaVuSans-32" x="83.789062"/>
      </g>
     </g>
    </g>
    <g id="xtick_16">
     <g id="line2d_24">
      <g>
       <use xlink:href="#m9f52adf6b9" x="498.216291" y="192.24" style="stroke: #000000; stroke-width: 0.8"/>
      </g>
     </g>
     <g id="text_26">
      <!-- −1 -->
      <g transform="translate(490.845197 206.838437) scale(0.1 -0.1)">
       <use xlink:href="#DejaVuSans-2212"/>
       <use xlink:href="#DejaVuSans-31" x="83.789062"/>
      </g>
     </g>
    </g>
    <g id="xtick_17">
     <g id="line2d_25">
      <g>
       <use xlink:href="#m9f52adf6b9" x="521.297223" y="192.24" style="stroke: #000000; stroke-width: 0.8"/>
      </g>
     </g>
     <g id="text_27">
      <!-- 0 -->
      <g transform="translate(518.115973 206.838437) scale(0.1 -0.1)">
       <use xlink:href="#DejaVuSans-30"/>
      </g>
     </g>
    </g>
    <g id="xtick_18">
     <g id="line2d_26">
      <g>
       <use xlink:href="#m9f52adf6b9" x="544.378155" y="192.24" style="stroke: #000000; stroke-width: 0.8"/>
      </g>
     </g>
     <g id="text_28">
      <!-- 1 -->
      <g transform="translate(541.196905 206.838437) scale(0.1 -0.1)">
       <use xlink:href="#DejaVuSans-31"/>
      </g>
     </g>
    </g>
    <g id="xtick_19">
     <g id="line2d_27">
      <g>
       <use xlink:href="#m9f52adf6b9" x="567.459087" y="192.24" style="stroke: #000000; stroke-width: 0.8"/>
      </g>
     </g>
     <g id="text_29">
      <!-- 2 -->
      <g transform="translate(564.277837 206.838437) scale(0.1 -0.1)">
       <use xlink:href="#DejaVuSans-32"/>
      </g>
     </g>
    </g>
    <g id="xtick_20">
     <g id="line2d_28">
      <g>
       <use xlink:href="#m9f52adf6b9" x="590.540019" y="192.24" style="stroke: #000000; stroke-width: 0.8"/>
      </g>
     </g>
     <g id="text_30">
      <!-- 3 -->
      <g transform="translate(587.358769 206.838437) scale(0.1 -0.1)">
       <use xlink:href="#DejaVuSans-33"/>
      </g>
     </g>
    </g>
    <g id="xtick_21">
     <g id="line2d_29">
      <g>
       <use xlink:href="#m9f52adf6b9" x="613.620952" y="192.24" style="stroke: #000000; stroke-width: 0.8"/>
      </g>
     </g>
     <g id="text_31">
      <!-- 4 -->
      <g transform="translate(610.439702 206.838437) scale(0.1 -0.1)">
       <use xlink:href="#DejaVuSans-34"/>
      </g>
     </g>
    </g>
    <g id="xtick_22">
     <g id="line2d_30">
      <g>
       <use xlink:href="#m9f52adf6b9" x="636.701884" y="192.24" style="stroke: #000000; stroke-width: 0.8"/>
      </g>
     </g>
     <g id="text_32">
      <!-- 5 -->
      <g transform="translate(633.520634 206.838437) scale(0.1 -0.1)">
       <use xlink:href="#DejaVuSans-35"/>
      </g>
     </g>
    </g>
    <g id="text_33">
     <!-- $t$ -->
     <g transform="translate(519.181818 220.516562) scale(0.1 -0.1)">
      <use xlink:href="#DejaVuSans-Oblique-74" transform="translate(0 0.78125)"/>
     </g>
    </g>
   </g>
   <g id="matplotlib.axis_4">
    <g id="ytick_8">
     <g id="line2d_31">
      <g>
       <use xlink:href="#m4365e3ab86" x="394.363636" y="178.322797" style="stroke: #000000; stroke-width: 0.8"/>
      </g>
     </g>
     <g id="text_34">
      <!-- −3 -->
      <g transform="translate(372.621449 182.122015) scale(0.1 -0.1)">
       <use xlink:href="#DejaVuSans-2212"/>
       <use xlink:href="#DejaVuSans-33" x="83.789062"/>
      </g>
     </g>
    </g>
    <g id="ytick_9">
     <g id="line2d_32">
      <g>
       <use xlink:href="#m4365e3ab86" x="394.363636" y="155.241864" style="stroke: #000000; stroke-width: 0.8"/>
      </g>
     </g>
     <g id="text_35">
      <!-- −2 -->
      <g transform="translate(372.621449 159.041083) scale(0.1 -0.1)">
       <use xlink:href="#DejaVuSans-2212"/>
       <use xlink:href="#DejaVuSans-32" x="83.789062"/>
      </g>
     </g>
    </g>
    <g id="ytick_10">
     <g id="line2d_33">
      <g>
       <use xlink:href="#m4365e3ab86" x="394.363636" y="132.160932" style="stroke: #000000; stroke-width: 0.8"/>
      </g>
     </g>
     <g id="text_36">
      <!-- −1 -->
      <g transform="translate(372.621449 135.960151) scale(0.1 -0.1)">
       <use xlink:href="#DejaVuSans-2212"/>
       <use xlink:href="#DejaVuSans-31" x="83.789062"/>
      </g>
     </g>
    </g>
    <g id="ytick_11">
     <g id="line2d_34">
      <g>
       <use xlink:href="#m4365e3ab86" x="394.363636" y="109.08" style="stroke: #000000; stroke-width: 0.8"/>
      </g>
     </g>
     <g id="text_37">
      <!-- 0 -->
      <g transform="translate(381.001136 112.879219) scale(0.1 -0.1)">
       <use xlink:href="#DejaVuSans-30"/>
      </g>
     </g>
    </g>
    <g id="ytick_12">
     <g id="line2d_35">
      <g>
       <use xlink:href="#m4365e3ab86" x="394.363636" y="85.999068" style="stroke: #000000; stroke-width: 0.8"/>
      </g>
     </g>
     <g id="text_38">
      <!-- 1 -->
      <g transform="translate(381.001136 89.798287) scale(0.1 -0.1)">
       <use xlink:href="#DejaVuSans-31"/>
      </g>
     </g>
    </g>
    <g id="ytick_13">
     <g id="line2d_36">
      <g>
       <use xlink:href="#m4365e3ab86" x="394.363636" y="62.918136" style="stroke: #000000; stroke-width: 0.8"/>
      </g>
     </g>
     <g id="text_39">
      <!-- 2 -->
      <g transform="translate(381.001136 66.717354) scale(0.1 -0.1)">
       <use xlink:href="#DejaVuSans-32"/>
      </g>
     </g>
    </g>
    <g id="ytick_14">
     <g id="line2d_37">
      <g>
       <use xlink:href="#m4365e3ab86" x="394.363636" y="39.837203" style="stroke: #000000; stroke-width: 0.8"/>
      </g>
     </g>
     <g id="text_40">
      <!-- 3 -->
      <g transform="translate(381.001136 43.636422) scale(0.1 -0.1)">
       <use xlink:href="#DejaVuSans-33"/>
      </g>
     </g>
    </g>
    <g id="text_41">
     <!-- $x(t)$ -->
     <g transform="translate(366.541761 117.93) rotate(-90) scale(0.1 -0.1)">
      <use xlink:href="#DejaVuSans-Oblique-78" transform="translate(0 0.125)"/>
      <use xlink:href="#DejaVuSans-28" transform="translate(59.179688 0.125)"/>
      <use xlink:href="#DejaVuSans-Oblique-74" transform="translate(98.193359 0.125)"/>
      <use xlink:href="#DejaVuSans-29" transform="translate(137.402344 0.125)"/>
     </g>
    </g>
   </g>
   <g id="line2d_38">
    <path d="M 405.892562 69.102653 
L 407.508227 67.229533 
L 409.123892 65.680034 
L 410.508748 64.61862 
L 411.893604 63.809845 
L 413.27846 63.258303 
L 414.663316 62.967129 
L 416.048172 62.937978 
L 417.433028 63.171015 
L 418.817884 63.664916 
L 420.20274 64.416875 
L 421.587596 65.422618 
L 423.203261 66.909039 
L 424.818926 68.721558 
L 426.665401 71.174222 
L 428.511876 74.009657 
L 430.589159 77.621261 
L 432.897253 82.103408 
L 435.436155 87.522221 
L 438.436676 94.447907 
L 442.591244 104.639542 
L 450.90038 125.170736 
L 454.13171 132.495032 
L 456.670613 137.75334 
L 458.978706 142.061391 
L 461.05599 145.495692 
L 462.902464 148.159018 
L 464.748939 150.427725 
L 466.364604 152.071021 
L 467.98027 153.381876 
L 469.365125 154.233117 
L 470.749981 154.827788 
L 472.134837 155.162512 
L 473.519693 155.235385 
L 474.904549 155.045994 
L 476.289405 154.595415 
L 477.674261 153.886209 
L 479.059117 152.922405 
L 480.443973 151.709479 
L 482.059638 149.988809 
L 483.675303 147.951801 
L 485.521778 145.256751 
L 487.599062 141.78966 
L 489.907155 137.449263 
L 492.446058 132.160932 
L 495.446579 125.351829 
L 499.370337 115.823465 
L 509.525947 90.835683 
L 512.526469 84.182192 
L 515.065371 79.063525 
L 517.373464 74.904735 
L 519.450748 71.62094 
L 521.297223 69.102653 
L 522.912888 67.229533 
L 524.528553 65.680034 
L 525.913409 64.61862 
L 527.298265 63.809845 
L 528.683121 63.258303 
L 530.067977 62.967129 
L 531.452833 62.937978 
L 532.837689 63.171015 
L 534.222545 63.664916 
L 535.607401 64.416875 
L 536.992257 65.422618 
L 538.607922 66.909039 
L 540.223587 68.721558 
L 542.070062 71.174222 
L 543.916536 74.009657 
L 545.99382 77.621261 
L 548.301913 82.103408 
L 550.840816 87.522221 
L 553.841337 94.447907 
L 557.995905 104.639542 
L 566.305041 125.170736 
L 569.536371 132.495032 
L 572.075274 137.75334 
L 574.383367 142.061391 
L 576.460651 145.495692 
L 578.307125 148.159018 
L 580.1536 150.427725 
L 581.769265 152.071021 
L 583.38493 153.381876 
L 584.769786 154.233117 
L 586.154642 154.827788 
L 587.539498 155.162512 
L 588.924354 155.235385 
L 590.30921 155.045994 
L 591.694066 154.595415 
L 593.078922 153.886209 
L 594.463778 152.922405 
L 595.848634 151.709479 
L 597.464299 149.988809 
L 599.079964 147.951801 
L 600.926439 145.256751 
L 603.003723 141.78966 
L 605.311816 137.449263 
L 607.850718 132.160932 
L 610.85124 125.351829 
L 614.774998 115.823465 
L 624.930608 90.835683 
L 627.931129 84.182192 
L 630.470032 79.063525 
L 632.778125 74.904735 
L 634.855409 71.62094 
L 636.471074 69.395845 
L 636.471074 69.395845 
" clip-path="url(#p4339f5bff9)" style="fill: none; stroke: #1f77b4; stroke-width: 1.5; stroke-linecap: square"/>
   </g>
   <g id="patch_8">
    <path d="M 394.363636 192.24 
L 394.363636 25.92 
" style="fill: none; stroke: #000000; stroke-width: 0.8; stroke-linejoin: miter; stroke-linecap: square"/>
   </g>
   <g id="patch_9">
    <path d="M 648 192.24 
L 648 25.92 
" style="fill: none; stroke: #000000; stroke-width: 0.8; stroke-linejoin: miter; stroke-linecap: square"/>
   </g>
   <g id="patch_10">
    <path d="M 394.363636 192.24 
L 648 192.24 
" style="fill: none; stroke: #000000; stroke-width: 0.8; stroke-linejoin: miter; stroke-linecap: square"/>
   </g>
   <g id="patch_11">
    <path d="M 394.363636 25.92 
L 648 25.92 
" style="fill: none; stroke: #000000; stroke-width: 0.8; stroke-linejoin: miter; stroke-linecap: square"/>
   </g>
   <g id="text_42">
    <!-- $A = 2$, $f = 1/5$, $\varphi = \pi/3$ -->
    <g transform="translate(458.301818 19.92) scale(0.12 -0.12)">
     <defs>
      <path id="DejaVuSans-2f" d="M 1625 4666 
L 2156 4666 
L 531 -594 
L 0 -594 
L 1625 4666 
z
" transform="scale(0.015625)"/>
      <path id="DejaVuSans-Oblique-3c0" d="M 584 3500 
L 3938 3500 
L 3825 2925 
L 3384 2925 
L 2966 775 
Q 2922 550 2981 450 
Q 3038 353 3209 353 
Q 3256 353 3325 363 
Q 3397 369 3419 372 
L 3338 -44 
Q 3222 -84 3103 -103 
Q 2981 -122 2866 -122 
Q 2491 -122 2388 81 
Q 2284 288 2391 838 
L 2797 2925 
L 1506 2925 
L 938 0 
L 350 0 
L 919 2925 
L 472 2925 
L 584 3500 
z
" transform="scale(0.015625)"/>
     </defs>
     <use xlink:href="#DejaVuSans-Oblique-41" transform="translate(0 0.015625)"/>
     <use xlink:href="#DejaVuSans-3d" transform="translate(87.890625 0.015625)"/>
     <use xlink:href="#DejaVuSans-32" transform="translate(191.162109 0.015625)"/>
     <use xlink:href="#DejaVuSans-2c" transform="translate(254.785156 0.015625)"/>
     <use xlink:href="#DejaVuSans-20" transform="translate(286.572266 0.015625)"/>
     <use xlink:href="#DejaVuSans-Oblique-66" transform="translate(318.359375 0.015625)"/>
     <use xlink:href="#DejaVuSans-3d" transform="translate(373.046875 0.015625)"/>
     <use xlink:href="#DejaVuSans-31" transform="translate(476.318359 0.015625)"/>
     <use xlink:href="#DejaVuSans-2f" transform="translate(539.941406 0.015625)"/>
     <use xlink:href="#DejaVuSans-35" transform="translate(573.632812 0.015625)"/>
     <use xlink:href="#DejaVuSans-2c" transform="translate(637.255859 0.015625)"/>
     <use xlink:href="#DejaVuSans-20" transform="translate(669.042969 0.015625)"/>
     <use xlink:href="#DejaVuSans-Oblique-3c6" transform="translate(700.830078 0.015625)"/>
     <use xlink:href="#DejaVuSans-3d" transform="translate(786.279297 0.015625)"/>
     <use xlink:href="#DejaVuSans-Oblique-3c0" transform="translate(889.550781 0.015625)"/>
     <use xlink:href="#DejaVuSans-2f" transform="translate(949.755859 0.015625)"/>
     <use xlink:href="#DejaVuSans-33" transform="translate(983.447266 0.015625)"/>
    </g>
   </g>
  </g>
 </g>
 <defs>
  <clipPath id="pb265620d84">
   <rect x="90" y="25.92" width="253.636364" height="166.32"/>
  </clipPath>
  <clipPath id="p4339f5bff9">
   <rect x="394.363636" y="25.92" width="253.636364" height="166.32"/>
  </clipPath>
 </defs>
</svg>
